G04 #@! TF.FileFunction,Copper,L2,Bot,Signal*
%FSLAX46Y46*%
G04 Gerber Fmt 4.6, Leading zero omitted, Abs format (unit mm)*
G04 Created by KiCad (PCBNEW 4.0.7) date 09/21/17 19:05:52*
%MOMM*%
%LPD*%
G01*
G04 APERTURE LIST*
%ADD10C,0.100000*%
%ADD11C,0.150000*%
%ADD12O,1.700000X1.700000*%
%ADD13C,1.700000*%
%ADD14C,1.500000*%
%ADD15O,2.500000X2.200000*%
%ADD16C,1.676400*%
%ADD17C,2.000000*%
%ADD18C,0.910000*%
%ADD19C,0.381000*%
%ADD20C,0.508000*%
%ADD21C,0.635000*%
%ADD22C,0.250000*%
G04 APERTURE END LIST*
D10*
D11*
X65000000Y-112500000D02*
X65000000Y-82500000D01*
X155000000Y-77500000D02*
X155000000Y-87500000D01*
X65000000Y-122500000D02*
X65000000Y-112500000D01*
X65000000Y-72500000D02*
X65000000Y-82500000D01*
X158000000Y-102500000D02*
X155000000Y-102500000D01*
X158000000Y-92500000D02*
X158000000Y-102500000D01*
X155000000Y-92500000D02*
X158000000Y-92500000D01*
X150000000Y-67500000D02*
X70000000Y-67500000D01*
X155000000Y-77500000D02*
X155000000Y-72500000D01*
X155000000Y-122500000D02*
X155000000Y-102500000D01*
X70000000Y-127500000D02*
X150000000Y-127500000D01*
X155000000Y-72500000D02*
G75*
G03X150000000Y-67500000I-5000000J0D01*
G01*
X150000000Y-127500000D02*
G75*
G03X155000000Y-122500000I0J5000000D01*
G01*
X65000000Y-122500000D02*
G75*
G03X70000000Y-127500000I5000000J0D01*
G01*
X70000000Y-67500000D02*
G75*
G03X65000000Y-72500000I0J-5000000D01*
G01*
X155000000Y-92500000D02*
X155000000Y-87500000D01*
D12*
X79375000Y-76835000D03*
X81915000Y-76835000D03*
X86995000Y-125730000D03*
X89535000Y-125730000D03*
X74295000Y-76835000D03*
X76835000Y-76835000D03*
X92075000Y-125730000D03*
X94615000Y-125730000D03*
X99695000Y-69850000D03*
X102235000Y-69850000D03*
X97155000Y-69850000D03*
X94615000Y-69850000D03*
X92075000Y-69850000D03*
X89535000Y-69850000D03*
X86995000Y-69850000D03*
X84455000Y-69850000D03*
D13*
X104775000Y-69850000D03*
D12*
X112395000Y-69850000D03*
X109855000Y-69850000D03*
X107315000Y-69850000D03*
X102235000Y-125730000D03*
X99695000Y-125730000D03*
X97155000Y-125730000D03*
X109855000Y-125730000D03*
X107315000Y-125730000D03*
X104775000Y-125730000D03*
X114935000Y-125730000D03*
X112395000Y-125730000D03*
X129000000Y-125500000D03*
X131540000Y-125500000D03*
X134080000Y-125500000D03*
D14*
X153162000Y-99961000D03*
D15*
X155812000Y-101161000D03*
D14*
X153162000Y-95111000D03*
D15*
X155812000Y-93911000D03*
D16*
X67945000Y-72390000D03*
X70485000Y-72390000D03*
X70485000Y-123190000D03*
X67945000Y-123190000D03*
X151765000Y-72390000D03*
X149225000Y-72390000D03*
X149860000Y-123190000D03*
X152400000Y-123190000D03*
D17*
X68580000Y-83820000D03*
X68580000Y-86360000D03*
X68580000Y-88900000D03*
X68580000Y-91440000D03*
X68580000Y-93980000D03*
X68580000Y-96520000D03*
X68580000Y-99060000D03*
X68580000Y-101600000D03*
X68580000Y-104140000D03*
X68580000Y-106680000D03*
X68580000Y-109220000D03*
X68580000Y-111760000D03*
X68580000Y-114300000D03*
X68580000Y-116840000D03*
X71120000Y-83820000D03*
X71120000Y-86360000D03*
X71120000Y-88900000D03*
X71120000Y-91440000D03*
X71120000Y-93980000D03*
X71120000Y-96520000D03*
X71120000Y-99060000D03*
X71120000Y-101600000D03*
X71120000Y-104140000D03*
X71120000Y-106680000D03*
X71120000Y-109220000D03*
X71120000Y-111760000D03*
X71120000Y-114300000D03*
X71120000Y-116840000D03*
X73660000Y-83820000D03*
X73660000Y-86360000D03*
X73660000Y-88900000D03*
X73660000Y-91440000D03*
X73660000Y-93980000D03*
X73660000Y-96520000D03*
X73660000Y-99060000D03*
X73660000Y-101600000D03*
X73660000Y-104140000D03*
X73660000Y-106680000D03*
X73660000Y-109220000D03*
X73660000Y-111760000D03*
X73660000Y-114300000D03*
X73660000Y-116840000D03*
X78740000Y-83820000D03*
X78740000Y-86360000D03*
X78740000Y-88900000D03*
X78740000Y-91440000D03*
X78740000Y-93980000D03*
X78740000Y-96520000D03*
X78740000Y-99060000D03*
X78740000Y-101600000D03*
X78740000Y-104140000D03*
X78740000Y-106680000D03*
X78740000Y-109220000D03*
X78740000Y-111760000D03*
X78740000Y-114300000D03*
X78740000Y-116840000D03*
X96520000Y-83820000D03*
X96520000Y-86360000D03*
X96520000Y-88900000D03*
X96520000Y-91440000D03*
X96520000Y-93980000D03*
X96520000Y-96520000D03*
X96520000Y-99060000D03*
X96520000Y-101600000D03*
X96520000Y-104140000D03*
X96520000Y-106680000D03*
X96520000Y-109220000D03*
X96520000Y-111760000D03*
X96520000Y-114300000D03*
X96520000Y-116840000D03*
X99060000Y-83820000D03*
X99060000Y-86360000D03*
X99060000Y-88900000D03*
X99060000Y-91440000D03*
X99060000Y-93980000D03*
X99060000Y-96520000D03*
X99060000Y-99060000D03*
X99060000Y-101600000D03*
X99060000Y-104140000D03*
X99060000Y-106680000D03*
X99060000Y-109220000D03*
X99060000Y-111760000D03*
X99060000Y-114300000D03*
X99060000Y-116840000D03*
X101600000Y-83820000D03*
X101600000Y-86360000D03*
X101600000Y-88900000D03*
X101600000Y-91440000D03*
X101600000Y-93980000D03*
X101600000Y-96520000D03*
X101600000Y-99060000D03*
X101600000Y-101600000D03*
X101600000Y-104140000D03*
X101600000Y-106680000D03*
X101600000Y-109220000D03*
X101600000Y-111760000D03*
X101600000Y-114300000D03*
X101600000Y-116840000D03*
X88900000Y-83820000D03*
X88900000Y-86360000D03*
X88900000Y-88900000D03*
X88900000Y-91440000D03*
X88900000Y-93980000D03*
X88900000Y-96520000D03*
X88900000Y-99060000D03*
X88900000Y-101600000D03*
X88900000Y-104140000D03*
X88900000Y-106680000D03*
X88900000Y-109220000D03*
X88900000Y-111760000D03*
X88900000Y-114300000D03*
X88900000Y-116840000D03*
X91440000Y-83820000D03*
X91440000Y-86360000D03*
X91440000Y-88900000D03*
X91440000Y-91440000D03*
X91440000Y-93980000D03*
X91440000Y-96520000D03*
X91440000Y-99060000D03*
X91440000Y-101600000D03*
X91440000Y-104140000D03*
X91440000Y-106680000D03*
X91440000Y-109220000D03*
X91440000Y-111760000D03*
X91440000Y-114300000D03*
X91440000Y-116840000D03*
X76200000Y-83820000D03*
X76200000Y-86360000D03*
X76200000Y-88900000D03*
X76200000Y-91440000D03*
X76200000Y-93980000D03*
X76200000Y-96520000D03*
X76200000Y-99060000D03*
X76200000Y-101600000D03*
X76200000Y-104140000D03*
X76200000Y-106680000D03*
X76200000Y-109220000D03*
X76200000Y-111760000D03*
X76200000Y-114300000D03*
X76200000Y-116840000D03*
X93980000Y-83820000D03*
X93980000Y-86360000D03*
X93980000Y-88900000D03*
X93980000Y-91440000D03*
X93980000Y-93980000D03*
X93980000Y-96520000D03*
X93980000Y-99060000D03*
X93980000Y-101600000D03*
X93980000Y-104140000D03*
X93980000Y-106680000D03*
X93980000Y-109220000D03*
X93980000Y-111760000D03*
X93980000Y-114300000D03*
X93980000Y-116840000D03*
X81280000Y-83820000D03*
X81280000Y-86360000D03*
X81280000Y-88900000D03*
X81280000Y-91440000D03*
X81280000Y-93980000D03*
X81280000Y-96520000D03*
X81280000Y-99060000D03*
X81280000Y-101600000D03*
X81280000Y-104140000D03*
X81280000Y-106680000D03*
X81280000Y-109220000D03*
X81280000Y-111760000D03*
X81280000Y-114300000D03*
X81280000Y-116840000D03*
X83820000Y-83820000D03*
X83820000Y-86360000D03*
X83820000Y-88900000D03*
X83820000Y-91440000D03*
X83820000Y-93980000D03*
X83820000Y-96520000D03*
X83820000Y-99060000D03*
X83820000Y-101600000D03*
X83820000Y-104140000D03*
X83820000Y-106680000D03*
X83820000Y-109220000D03*
X83820000Y-111760000D03*
X83820000Y-114300000D03*
X83820000Y-116840000D03*
X86360000Y-83820000D03*
X86360000Y-86360000D03*
X86360000Y-88900000D03*
X86360000Y-91440000D03*
X86360000Y-93980000D03*
X86360000Y-96520000D03*
X86360000Y-99060000D03*
X86360000Y-101600000D03*
X86360000Y-104140000D03*
X86360000Y-106680000D03*
X86360000Y-109220000D03*
X86360000Y-111760000D03*
X86360000Y-114300000D03*
X86360000Y-116840000D03*
D18*
X120650000Y-72771000D03*
X118237000Y-75184000D03*
X134493000Y-99060000D03*
X137414000Y-98298000D03*
X128270000Y-72771000D03*
X146685000Y-86995000D03*
X125603000Y-123063000D03*
X104267000Y-117475000D03*
X120142000Y-79756000D03*
X128524000Y-81661000D03*
X152527000Y-87884000D03*
X138557000Y-89154000D03*
X145034000Y-95631000D03*
X150622000Y-103251000D03*
X119380000Y-74041000D03*
X129000000Y-119250000D03*
X141478000Y-91821000D03*
X145161000Y-92964000D03*
X150876000Y-99314000D03*
X149860000Y-96647000D03*
X149860000Y-101219000D03*
X147701000Y-100965000D03*
X121920000Y-80772000D03*
X144780000Y-112395000D03*
X70485000Y-119761000D03*
X126365000Y-119126000D03*
X126111000Y-100076000D03*
X130556000Y-100203000D03*
X148336000Y-106172000D03*
X125603000Y-69850000D03*
X112522000Y-90932000D03*
X116586000Y-70866000D03*
X149479000Y-105537000D03*
X107569000Y-105156000D03*
X106680000Y-91948000D03*
X116332000Y-106680000D03*
X113030000Y-98679000D03*
X119380000Y-90932000D03*
X135128000Y-110109000D03*
X138684000Y-106553000D03*
X146939000Y-110490000D03*
X113665000Y-74676000D03*
X147701000Y-99060000D03*
X145669000Y-98044000D03*
X123317000Y-108331000D03*
X124079000Y-107315000D03*
X118999000Y-121158000D03*
X125349000Y-109601000D03*
X129413000Y-104775000D03*
X130048000Y-91059000D03*
X130175000Y-89662000D03*
X120269000Y-124206000D03*
X126746000Y-109728000D03*
X131191000Y-106426000D03*
X131191000Y-87630000D03*
X118872000Y-125476000D03*
X128143000Y-109728000D03*
X132969000Y-106807000D03*
X118110000Y-82677000D03*
X122047000Y-83058000D03*
X125095000Y-89535000D03*
X128524000Y-84963000D03*
X119888000Y-81280000D03*
X110744000Y-72390000D03*
X117983000Y-81153000D03*
X108712000Y-82550000D03*
X101219000Y-73660000D03*
X103251000Y-75184000D03*
X107950000Y-80137000D03*
X105156000Y-87630000D03*
X107950000Y-92202000D03*
X105156000Y-90424000D03*
X99060000Y-79629000D03*
X105664000Y-99314000D03*
X102616000Y-73787000D03*
X111633000Y-82042000D03*
X115189000Y-102997000D03*
X114808000Y-105918000D03*
X115697000Y-91059000D03*
X96266000Y-73660000D03*
X115824000Y-89662000D03*
X97917000Y-74295000D03*
X115443000Y-88519000D03*
X116332000Y-87630000D03*
X99441000Y-74549000D03*
X113030000Y-81407000D03*
X115570000Y-82423000D03*
X98552000Y-71755000D03*
D19*
X120650000Y-72771000D02*
X120523000Y-72898000D01*
D20*
X120523000Y-72898000D02*
X118618000Y-72898000D01*
X118618000Y-72898000D02*
X118237000Y-73279000D01*
X118237000Y-73279000D02*
X118237000Y-75184000D01*
X134493000Y-99060000D02*
X135255000Y-98298000D01*
X135255000Y-98298000D02*
X137414000Y-98298000D01*
X128270000Y-72771000D02*
X142494000Y-86995000D01*
X142494000Y-86995000D02*
X146685000Y-86995000D01*
X131540000Y-125500000D02*
X131540000Y-124047000D01*
X131540000Y-124047000D02*
X130556000Y-123063000D01*
X130556000Y-123063000D02*
X125603000Y-123063000D01*
X94615000Y-125730000D02*
X92075000Y-125730000D01*
X94615000Y-124841000D02*
X94615000Y-125730000D01*
X98044000Y-121412000D02*
X94615000Y-124841000D01*
X103378000Y-121412000D02*
X98044000Y-121412000D01*
X104013000Y-120777000D02*
X103378000Y-121412000D01*
X104013000Y-117729000D02*
X104013000Y-120777000D01*
X104267000Y-117475000D02*
X104013000Y-117729000D01*
X121475500Y-78422500D02*
X121475500Y-76136500D01*
X120142000Y-79756000D02*
X121475500Y-78422500D01*
X128524000Y-81661000D02*
X128524000Y-81280000D01*
X128524000Y-81280000D02*
X126492000Y-79248000D01*
X126492000Y-79248000D02*
X124587000Y-79248000D01*
X124587000Y-79248000D02*
X121475500Y-76136500D01*
X121475500Y-76136500D02*
X119380000Y-74041000D01*
X152273000Y-88138000D02*
X152527000Y-87884000D01*
X144780000Y-88138000D02*
X152273000Y-88138000D01*
X138557000Y-89154000D02*
X139573000Y-88138000D01*
X139573000Y-88138000D02*
X144780000Y-88138000D01*
X145034000Y-95631000D02*
X147066000Y-93599000D01*
X147066000Y-93599000D02*
X147066000Y-90424000D01*
X147066000Y-90424000D02*
X144780000Y-88138000D01*
X150622000Y-103251000D02*
X151384000Y-102489000D01*
X151384000Y-102489000D02*
X151384000Y-101346000D01*
X151384000Y-101346000D02*
X148844000Y-98806000D01*
X148844000Y-98806000D02*
X148844000Y-97409000D01*
X148844000Y-97409000D02*
X147066000Y-95631000D01*
X147066000Y-95631000D02*
X145034000Y-95631000D01*
D19*
X120015000Y-74676000D02*
X119380000Y-74041000D01*
D21*
X86995000Y-125730000D02*
X86995000Y-124587000D01*
X72771000Y-120904000D02*
X70485000Y-123190000D01*
X83312000Y-120904000D02*
X72771000Y-120904000D01*
X86995000Y-124587000D02*
X83312000Y-120904000D01*
D20*
X89535000Y-125730000D02*
X86995000Y-125730000D01*
X146939000Y-117348000D02*
X130902000Y-117348000D01*
X130902000Y-117348000D02*
X129000000Y-119250000D01*
X146939000Y-117348000D02*
X152019000Y-112268000D01*
X152019000Y-112268000D02*
X152019000Y-106426000D01*
X152019000Y-106426000D02*
X148463000Y-102870000D01*
X148463000Y-102870000D02*
X147574000Y-102870000D01*
X147574000Y-102870000D02*
X143256000Y-98552000D01*
X143256000Y-98552000D02*
X143256000Y-94869000D01*
X145161000Y-92964000D02*
X143256000Y-94869000D01*
X144018000Y-91821000D02*
X141478000Y-91821000D01*
X145161000Y-92964000D02*
X144018000Y-91821000D01*
D22*
X150876000Y-99314000D02*
X149860000Y-98298000D01*
X149860000Y-98298000D02*
X149860000Y-96647000D01*
X149860000Y-101219000D02*
X149606000Y-100965000D01*
X149606000Y-100965000D02*
X147701000Y-100965000D01*
D19*
X121094500Y-88201500D02*
X121094500Y-81597500D01*
X121094500Y-81597500D02*
X121920000Y-80772000D01*
X116713000Y-92329000D02*
X116713000Y-95123000D01*
X119634000Y-89662000D02*
X121094500Y-88201500D01*
X119380000Y-89662000D02*
X119634000Y-89662000D01*
X116713000Y-92329000D02*
X119380000Y-89662000D01*
X144780000Y-112395000D02*
X144780000Y-112268000D01*
X132842000Y-111252000D02*
X116713000Y-95123000D01*
X143764000Y-111252000D02*
X132842000Y-111252000D01*
X144780000Y-112268000D02*
X143764000Y-111252000D01*
D20*
X146939000Y-120396000D02*
X127635000Y-120396000D01*
X149733000Y-123190000D02*
X146939000Y-120396000D01*
X69850000Y-120396000D02*
X67945000Y-122301000D01*
X67945000Y-122301000D02*
X67945000Y-123190000D01*
X70485000Y-119761000D02*
X69850000Y-120396000D01*
X127635000Y-120396000D02*
X126365000Y-119126000D01*
X149860000Y-123190000D02*
X149733000Y-123190000D01*
D19*
X126111000Y-100076000D02*
X126111000Y-90297000D01*
X125603000Y-72263000D02*
X125603000Y-69850000D01*
X131318000Y-77978000D02*
X125603000Y-72263000D01*
X131318000Y-85090000D02*
X131318000Y-77978000D01*
X126111000Y-90297000D02*
X131318000Y-85090000D01*
X142367000Y-100203000D02*
X130556000Y-100203000D01*
X148336000Y-106172000D02*
X142367000Y-100203000D01*
X118872000Y-81788000D02*
X118872000Y-78359000D01*
X118872000Y-78359000D02*
X117348000Y-76835000D01*
X115697000Y-93980000D02*
X115697000Y-92329000D01*
X120396000Y-87630000D02*
X120396000Y-86360000D01*
X115697000Y-92329000D02*
X120396000Y-87630000D01*
X115697000Y-94107000D02*
X115697000Y-93980000D01*
X115697000Y-93980000D02*
X115697000Y-94488000D01*
X112522000Y-90932000D02*
X115697000Y-94107000D01*
X117348000Y-71628000D02*
X116586000Y-70866000D01*
X120396000Y-86360000D02*
X120396000Y-83312000D01*
X120396000Y-83312000D02*
X118872000Y-81788000D01*
X117348000Y-76835000D02*
X117348000Y-71628000D01*
X144145000Y-114046000D02*
X142875000Y-114046000D01*
X149479000Y-105537000D02*
X149479000Y-107569000D01*
X149479000Y-107569000D02*
X148971000Y-108077000D01*
X148971000Y-108077000D02*
X148971000Y-110236000D01*
X148971000Y-110236000D02*
X145161000Y-114046000D01*
X145161000Y-114046000D02*
X144145000Y-114046000D01*
X142875000Y-114046000D02*
X141224000Y-112395000D01*
X141224000Y-112395000D02*
X132334000Y-112395000D01*
X132334000Y-112395000D02*
X115697000Y-95758000D01*
X115697000Y-95758000D02*
X115697000Y-94488000D01*
D20*
X107569000Y-105156000D02*
X106680000Y-104267000D01*
X106680000Y-104267000D02*
X106680000Y-91948000D01*
D19*
X116332000Y-106680000D02*
X116332000Y-100711000D01*
X114300000Y-98679000D02*
X113030000Y-98679000D01*
X116332000Y-100711000D02*
X114300000Y-98679000D01*
X117602000Y-92710000D02*
X117602000Y-94488000D01*
X119380000Y-90932000D02*
X117602000Y-92710000D01*
X135128000Y-110109000D02*
X133223000Y-110109000D01*
X133223000Y-110109000D02*
X117602000Y-94488000D01*
D22*
X138684000Y-106553000D02*
X142621000Y-110490000D01*
X142621000Y-110490000D02*
X146939000Y-110490000D01*
D19*
X115570000Y-72771000D02*
X113665000Y-74676000D01*
X115570000Y-70739000D02*
X115570000Y-72771000D01*
X115570000Y-70358000D02*
X115570000Y-70739000D01*
X117348000Y-68961000D02*
X116967000Y-68961000D01*
X116967000Y-68961000D02*
X115570000Y-70358000D01*
D20*
X117348000Y-68961000D02*
X124333000Y-68961000D01*
X124333000Y-68961000D02*
X124714000Y-68580000D01*
X124714000Y-68580000D02*
X126873000Y-68580000D01*
X126873000Y-68580000D02*
X135382000Y-77089000D01*
X135382000Y-77089000D02*
X150114000Y-77089000D01*
X150114000Y-77089000D02*
X151765000Y-75438000D01*
X151765000Y-75438000D02*
X151765000Y-72390000D01*
D22*
X147701000Y-99060000D02*
X146685000Y-98044000D01*
X146685000Y-98044000D02*
X145669000Y-98044000D01*
D19*
X122174000Y-109474000D02*
X121285000Y-109474000D01*
X123317000Y-108331000D02*
X122174000Y-109474000D01*
X116586000Y-119634000D02*
X115570000Y-120650000D01*
X112395000Y-123825000D02*
X112395000Y-125730000D01*
X115570000Y-120650000D02*
X112395000Y-123825000D01*
X121285000Y-109474000D02*
X116586000Y-114173000D01*
X116586000Y-114173000D02*
X116586000Y-119634000D01*
X124079000Y-107315000D02*
X124206000Y-107315000D01*
X114935000Y-122936000D02*
X114935000Y-125730000D01*
X117856000Y-120015000D02*
X114935000Y-122936000D01*
X117856000Y-115697000D02*
X117856000Y-120015000D01*
X124841000Y-108712000D02*
X117856000Y-115697000D01*
X124841000Y-107950000D02*
X124841000Y-108712000D01*
X124206000Y-107315000D02*
X124841000Y-107950000D01*
X118999000Y-115951000D02*
X118999000Y-121158000D01*
X125349000Y-109601000D02*
X118999000Y-115951000D01*
X127889000Y-103251000D02*
X129413000Y-104775000D01*
X127889000Y-93218000D02*
X127889000Y-103251000D01*
X130048000Y-91059000D02*
X127889000Y-93218000D01*
X131699000Y-92583000D02*
X130556000Y-93726000D01*
X131699000Y-91186000D02*
X131699000Y-92583000D01*
X130175000Y-89662000D02*
X131699000Y-91186000D01*
X126746000Y-109728000D02*
X126746000Y-111760000D01*
X121412000Y-123063000D02*
X120269000Y-124206000D01*
X121412000Y-117094000D02*
X121412000Y-123063000D01*
X126746000Y-111760000D02*
X121412000Y-117094000D01*
X131445000Y-106172000D02*
X131191000Y-106426000D01*
X130556000Y-93726000D02*
X130556000Y-97028000D01*
X130556000Y-97028000D02*
X128778000Y-98806000D01*
X128778000Y-98806000D02*
X128778000Y-101092000D01*
X128778000Y-101092000D02*
X131445000Y-103759000D01*
X131445000Y-103759000D02*
X131445000Y-106172000D01*
X132588000Y-92710000D02*
X131318000Y-93980000D01*
X132588000Y-89027000D02*
X132588000Y-92710000D01*
X131191000Y-87630000D02*
X132588000Y-89027000D01*
X118872000Y-125476000D02*
X120523000Y-125476000D01*
X128143000Y-112014000D02*
X128143000Y-109728000D01*
X124841000Y-115316000D02*
X128143000Y-112014000D01*
X124841000Y-121158000D02*
X124841000Y-115316000D01*
X120523000Y-125476000D02*
X124841000Y-121158000D01*
X132461000Y-105791000D02*
X132461000Y-106299000D01*
X131318000Y-93980000D02*
X131318000Y-97155000D01*
X131318000Y-97155000D02*
X129540000Y-98933000D01*
X129540000Y-98933000D02*
X129540000Y-100584000D01*
X129540000Y-100584000D02*
X132461000Y-103505000D01*
X132461000Y-103505000D02*
X132461000Y-105791000D01*
X132461000Y-106299000D02*
X132969000Y-106807000D01*
X109855000Y-74422000D02*
X109855000Y-69850000D01*
X118110000Y-82677000D02*
X109855000Y-74422000D01*
X122047000Y-86487000D02*
X122047000Y-83058000D01*
X125095000Y-89535000D02*
X122047000Y-86487000D01*
X128524000Y-84963000D02*
X123063000Y-79502000D01*
X123063000Y-79502000D02*
X121793000Y-79502000D01*
X121793000Y-79502000D02*
X120015000Y-81280000D01*
X120015000Y-81280000D02*
X119888000Y-81280000D01*
X110744000Y-73914000D02*
X110744000Y-72390000D01*
X117983000Y-81153000D02*
X110744000Y-73914000D01*
X101473000Y-74041000D02*
X101473000Y-73914000D01*
X108712000Y-82550000D02*
X101473000Y-75311000D01*
X101473000Y-75311000D02*
X101473000Y-74041000D01*
X101473000Y-73914000D02*
X101219000Y-73660000D01*
X103251000Y-75438000D02*
X103251000Y-75184000D01*
X107950000Y-80137000D02*
X103251000Y-75438000D01*
X106172000Y-87630000D02*
X105156000Y-87630000D01*
X107950000Y-89408000D02*
X106172000Y-87630000D01*
X107950000Y-92202000D02*
X107950000Y-89408000D01*
X101727000Y-81661000D02*
X99568000Y-79502000D01*
X105156000Y-90424000D02*
X104267000Y-89535000D01*
X104267000Y-89535000D02*
X104267000Y-84201000D01*
X104267000Y-84201000D02*
X101727000Y-81661000D01*
X99187000Y-79502000D02*
X99060000Y-79629000D01*
X99568000Y-79502000D02*
X99187000Y-79502000D01*
X100330000Y-122555000D02*
X97155000Y-125730000D01*
X103632000Y-122555000D02*
X100330000Y-122555000D01*
X105918000Y-120269000D02*
X103632000Y-122555000D01*
X105918000Y-99568000D02*
X105918000Y-120269000D01*
X105664000Y-99314000D02*
X105918000Y-99568000D01*
X103378000Y-73787000D02*
X102616000Y-73787000D01*
X111633000Y-82042000D02*
X103378000Y-73787000D01*
X101600000Y-123825000D02*
X99695000Y-125730000D01*
X102235000Y-123825000D02*
X101600000Y-123825000D01*
X102743000Y-123317000D02*
X102235000Y-123825000D01*
X109220000Y-123317000D02*
X102743000Y-123317000D01*
X112776000Y-119761000D02*
X109220000Y-123317000D01*
X112776000Y-105410000D02*
X112776000Y-119761000D01*
X115189000Y-102997000D02*
X112776000Y-105410000D01*
X103378000Y-124079000D02*
X102235000Y-125222000D01*
X109601000Y-124079000D02*
X103378000Y-124079000D01*
X113665000Y-120015000D02*
X109601000Y-124079000D01*
X113665000Y-107061000D02*
X113665000Y-120015000D01*
X114808000Y-105918000D02*
X113665000Y-107061000D01*
X102235000Y-125222000D02*
X102235000Y-125730000D01*
X113284000Y-89916000D02*
X112903000Y-89916000D01*
X114427000Y-91059000D02*
X113284000Y-89916000D01*
X115697000Y-91059000D02*
X114427000Y-91059000D01*
X92075000Y-70993000D02*
X92075000Y-69850000D01*
X110998000Y-89916000D02*
X92075000Y-70993000D01*
X112903000Y-89916000D02*
X110998000Y-89916000D01*
X112903000Y-88773000D02*
X110998000Y-88773000D01*
X110998000Y-88773000D02*
X96266000Y-74041000D01*
X96266000Y-74041000D02*
X96266000Y-73660000D01*
X113157000Y-88773000D02*
X112903000Y-88773000D01*
X114046000Y-89662000D02*
X113157000Y-88773000D01*
X115824000Y-89662000D02*
X114046000Y-89662000D01*
X111506000Y-88011000D02*
X97917000Y-74422000D01*
X97917000Y-74422000D02*
X97917000Y-74295000D01*
X113284000Y-88011000D02*
X111506000Y-88011000D01*
X114173000Y-88900000D02*
X113284000Y-88011000D01*
X115062000Y-88900000D02*
X114173000Y-88900000D01*
X115443000Y-88519000D02*
X115062000Y-88900000D01*
X114681000Y-87630000D02*
X113919000Y-87630000D01*
X116332000Y-87630000D02*
X114808000Y-87630000D01*
X114808000Y-87630000D02*
X114681000Y-87630000D01*
X99441000Y-74803000D02*
X99441000Y-74549000D01*
X112014000Y-87376000D02*
X99441000Y-74803000D01*
X113665000Y-87376000D02*
X112014000Y-87376000D01*
X113919000Y-87630000D02*
X113665000Y-87376000D01*
X100584000Y-72644000D02*
X97790000Y-72644000D01*
X97155000Y-72009000D02*
X97155000Y-69850000D01*
X97790000Y-72644000D02*
X97155000Y-72009000D01*
X104267000Y-72644000D02*
X100584000Y-72644000D01*
X113030000Y-81407000D02*
X104267000Y-72644000D01*
X101219000Y-71882000D02*
X98679000Y-71882000D01*
X115570000Y-82423000D02*
X105029000Y-71882000D01*
X105029000Y-71882000D02*
X101219000Y-71882000D01*
X98679000Y-71882000D02*
X98552000Y-71755000D01*
M02*
