G04 #@! TF.FileFunction,Legend,Bot*
%FSLAX46Y46*%
G04 Gerber Fmt 4.6, Leading zero omitted, Abs format (unit mm)*
G04 Created by KiCad (PCBNEW 4.0.7) date 09/21/17 19:05:52*
%MOMM*%
%LPD*%
G01*
G04 APERTURE LIST*
%ADD10C,0.100000*%
%ADD11C,0.254000*%
%ADD12C,0.150000*%
%ADD13C,0.300000*%
%ADD14C,0.075000*%
%ADD15C,0.002540*%
G04 APERTURE END LIST*
D10*
D11*
X144707428Y-81316286D02*
X144465523Y-81993619D01*
X144223619Y-81316286D01*
X143304381Y-81993619D02*
X143884952Y-81993619D01*
X143594666Y-81993619D02*
X143594666Y-80977619D01*
X143691428Y-81122762D01*
X143788190Y-81219524D01*
X143884952Y-81267905D01*
X142868952Y-81896857D02*
X142820571Y-81945238D01*
X142868952Y-81993619D01*
X142917333Y-81945238D01*
X142868952Y-81896857D01*
X142868952Y-81993619D01*
X142191618Y-80977619D02*
X142094857Y-80977619D01*
X141998095Y-81026000D01*
X141949714Y-81074381D01*
X141901333Y-81171143D01*
X141852952Y-81364667D01*
X141852952Y-81606571D01*
X141901333Y-81800095D01*
X141949714Y-81896857D01*
X141998095Y-81945238D01*
X142094857Y-81993619D01*
X142191618Y-81993619D01*
X142288380Y-81945238D01*
X142336761Y-81896857D01*
X142385142Y-81800095D01*
X142433523Y-81606571D01*
X142433523Y-81364667D01*
X142385142Y-81171143D01*
X142336761Y-81074381D01*
X142288380Y-81026000D01*
X142191618Y-80977619D01*
D12*
X65000000Y-112500000D02*
X65000000Y-82500000D01*
X155000000Y-77500000D02*
X155000000Y-87500000D01*
X65000000Y-122500000D02*
X65000000Y-112500000D01*
X65000000Y-72500000D02*
X65000000Y-82500000D01*
X158000000Y-102500000D02*
X155000000Y-102500000D01*
X158000000Y-92500000D02*
X158000000Y-102500000D01*
X155000000Y-92500000D02*
X158000000Y-92500000D01*
X150000000Y-67500000D02*
X70000000Y-67500000D01*
X155000000Y-77500000D02*
X155000000Y-72500000D01*
X155000000Y-122500000D02*
X155000000Y-102500000D01*
X70000000Y-127500000D02*
X150000000Y-127500000D01*
X155000000Y-72500000D02*
G75*
G03X150000000Y-67500000I-5000000J0D01*
G01*
X150000000Y-127500000D02*
G75*
G03X155000000Y-122500000I0J5000000D01*
G01*
X65000000Y-122500000D02*
G75*
G03X70000000Y-127500000I5000000J0D01*
G01*
X70000000Y-67500000D02*
G75*
G03X65000000Y-72500000I0J-5000000D01*
G01*
X155000000Y-92500000D02*
X155000000Y-87500000D01*
D13*
X140462002Y-97409000D02*
X139869335Y-97409000D01*
X139615335Y-98340333D02*
X140462002Y-98340333D01*
X140462002Y-96562333D01*
X139615335Y-96562333D01*
X139022668Y-98340333D02*
X138091335Y-97155000D01*
X139022668Y-97155000D02*
X138091335Y-98340333D01*
X137414002Y-97155000D02*
X137414002Y-98933000D01*
X137414002Y-97239667D02*
X137244668Y-97155000D01*
X136906002Y-97155000D01*
X136736668Y-97239667D01*
X136652002Y-97324333D01*
X136567335Y-97493667D01*
X136567335Y-98001667D01*
X136652002Y-98171000D01*
X136736668Y-98255667D01*
X136906002Y-98340333D01*
X137244668Y-98340333D01*
X137414002Y-98255667D01*
X135551335Y-98340333D02*
X135720668Y-98255667D01*
X135805335Y-98086333D01*
X135805335Y-96562333D01*
X134620002Y-98340333D02*
X134789335Y-98255667D01*
X134874002Y-98171000D01*
X134958668Y-98001667D01*
X134958668Y-97493667D01*
X134874002Y-97324333D01*
X134789335Y-97239667D01*
X134620002Y-97155000D01*
X134366002Y-97155000D01*
X134196668Y-97239667D01*
X134112002Y-97324333D01*
X134027335Y-97493667D01*
X134027335Y-98001667D01*
X134112002Y-98171000D01*
X134196668Y-98255667D01*
X134366002Y-98340333D01*
X134620002Y-98340333D01*
X133265335Y-98340333D02*
X133265335Y-97155000D01*
X133265335Y-97493667D02*
X133180668Y-97324333D01*
X133096001Y-97239667D01*
X132926668Y-97155000D01*
X132757335Y-97155000D01*
X131487334Y-98255667D02*
X131656668Y-98340333D01*
X131995334Y-98340333D01*
X132164668Y-98255667D01*
X132249334Y-98086333D01*
X132249334Y-97409000D01*
X132164668Y-97239667D01*
X131995334Y-97155000D01*
X131656668Y-97155000D01*
X131487334Y-97239667D01*
X131402668Y-97409000D01*
X131402668Y-97578333D01*
X132249334Y-97747667D01*
X129963334Y-98255667D02*
X130132668Y-98340333D01*
X130471334Y-98340333D01*
X130640668Y-98255667D01*
X130725334Y-98086333D01*
X130725334Y-97409000D01*
X130640668Y-97239667D01*
X130471334Y-97155000D01*
X130132668Y-97155000D01*
X129963334Y-97239667D01*
X129878668Y-97409000D01*
X129878668Y-97578333D01*
X130725334Y-97747667D01*
X129116668Y-98340333D02*
X129116668Y-97155000D01*
X129116668Y-97324333D02*
X129032001Y-97239667D01*
X128862668Y-97155000D01*
X128608668Y-97155000D01*
X128439334Y-97239667D01*
X128354668Y-97409000D01*
X128354668Y-98340333D01*
X128354668Y-97409000D02*
X128270001Y-97239667D01*
X128100668Y-97155000D01*
X127846668Y-97155000D01*
X127677334Y-97239667D01*
X127592668Y-97409000D01*
X127592668Y-98340333D01*
X126746001Y-98340333D02*
X126746001Y-96562333D01*
X126746001Y-97239667D02*
X126576667Y-97155000D01*
X126238001Y-97155000D01*
X126068667Y-97239667D01*
X125984001Y-97324333D01*
X125899334Y-97493667D01*
X125899334Y-98001667D01*
X125984001Y-98171000D01*
X126068667Y-98255667D01*
X126238001Y-98340333D01*
X126576667Y-98340333D01*
X126746001Y-98255667D01*
X124460000Y-98255667D02*
X124629334Y-98340333D01*
X124968000Y-98340333D01*
X125137334Y-98255667D01*
X125222000Y-98086333D01*
X125222000Y-97409000D01*
X125137334Y-97239667D01*
X124968000Y-97155000D01*
X124629334Y-97155000D01*
X124460000Y-97239667D01*
X124375334Y-97409000D01*
X124375334Y-97578333D01*
X125222000Y-97747667D01*
X122851334Y-98340333D02*
X122851334Y-96562333D01*
X122851334Y-98255667D02*
X123020667Y-98340333D01*
X123359334Y-98340333D01*
X123528667Y-98255667D01*
X123613334Y-98171000D01*
X123698000Y-98001667D01*
X123698000Y-97493667D01*
X123613334Y-97324333D01*
X123528667Y-97239667D01*
X123359334Y-97155000D01*
X123020667Y-97155000D01*
X122851334Y-97239667D01*
X121242667Y-98340333D02*
X121242667Y-96562333D01*
X121242667Y-98255667D02*
X121412000Y-98340333D01*
X121750667Y-98340333D01*
X121920000Y-98255667D01*
X122004667Y-98171000D01*
X122089333Y-98001667D01*
X122089333Y-97493667D01*
X122004667Y-97324333D01*
X121920000Y-97239667D01*
X121750667Y-97155000D01*
X121412000Y-97155000D01*
X121242667Y-97239667D01*
X119718666Y-98255667D02*
X119888000Y-98340333D01*
X120226666Y-98340333D01*
X120396000Y-98255667D01*
X120480666Y-98086333D01*
X120480666Y-97409000D01*
X120396000Y-97239667D01*
X120226666Y-97155000D01*
X119888000Y-97155000D01*
X119718666Y-97239667D01*
X119634000Y-97409000D01*
X119634000Y-97578333D01*
X120480666Y-97747667D01*
X118110000Y-98340333D02*
X118110000Y-96562333D01*
X118110000Y-98255667D02*
X118279333Y-98340333D01*
X118618000Y-98340333D01*
X118787333Y-98255667D01*
X118872000Y-98171000D01*
X118956666Y-98001667D01*
X118956666Y-97493667D01*
X118872000Y-97324333D01*
X118787333Y-97239667D01*
X118618000Y-97155000D01*
X118279333Y-97155000D01*
X118110000Y-97239667D01*
X117263333Y-98171000D02*
X117178666Y-98255667D01*
X117263333Y-98340333D01*
X117347999Y-98255667D01*
X117263333Y-98171000D01*
X117263333Y-98340333D01*
X115654666Y-98255667D02*
X115823999Y-98340333D01*
X116162666Y-98340333D01*
X116331999Y-98255667D01*
X116416666Y-98171000D01*
X116501332Y-98001667D01*
X116501332Y-97493667D01*
X116416666Y-97324333D01*
X116331999Y-97239667D01*
X116162666Y-97155000D01*
X115823999Y-97155000D01*
X115654666Y-97239667D01*
X114638666Y-98340333D02*
X114807999Y-98255667D01*
X114892666Y-98171000D01*
X114977332Y-98001667D01*
X114977332Y-97493667D01*
X114892666Y-97324333D01*
X114807999Y-97239667D01*
X114638666Y-97155000D01*
X114384666Y-97155000D01*
X114215332Y-97239667D01*
X114130666Y-97324333D01*
X114045999Y-97493667D01*
X114045999Y-98001667D01*
X114130666Y-98171000D01*
X114215332Y-98255667D01*
X114384666Y-98340333D01*
X114638666Y-98340333D01*
X113283999Y-98340333D02*
X113283999Y-97155000D01*
X113283999Y-97324333D02*
X113199332Y-97239667D01*
X113029999Y-97155000D01*
X112775999Y-97155000D01*
X112606665Y-97239667D01*
X112521999Y-97409000D01*
X112521999Y-98340333D01*
X112521999Y-97409000D02*
X112437332Y-97239667D01*
X112267999Y-97155000D01*
X112013999Y-97155000D01*
X111844665Y-97239667D01*
X111759999Y-97409000D01*
X111759999Y-98340333D01*
D14*
X149090000Y-117370000D02*
X149090000Y-117830000D01*
X149000000Y-117370000D02*
X148950000Y-117370000D01*
X149050000Y-117400000D02*
X149000000Y-117370000D01*
X149070000Y-117420000D02*
X149050000Y-117400000D01*
X149090000Y-117490000D02*
X149070000Y-117420000D01*
X148650000Y-117830000D02*
X148600000Y-117800000D01*
X148750000Y-117830000D02*
X148650000Y-117830000D01*
X148790000Y-117800000D02*
X148750000Y-117830000D01*
X148810000Y-117730000D02*
X148790000Y-117800000D01*
X148810000Y-117460000D02*
X148810000Y-117730000D01*
X148780000Y-117400000D02*
X148810000Y-117460000D01*
X148740000Y-117370000D02*
X148780000Y-117400000D01*
X148640000Y-117370000D02*
X148740000Y-117370000D01*
X148600000Y-117410000D02*
X148640000Y-117370000D01*
X148580000Y-117480000D02*
X148600000Y-117410000D01*
X148580000Y-117600000D02*
X148580000Y-117480000D01*
X148580000Y-117600000D02*
X148810000Y-117600000D01*
X149330000Y-117460000D02*
X149330000Y-117830000D01*
X149360000Y-117400000D02*
X149330000Y-117460000D01*
X149400000Y-117370000D02*
X149360000Y-117400000D01*
X149500000Y-117370000D02*
X149400000Y-117370000D01*
X149550000Y-117400000D02*
X149500000Y-117370000D01*
X149490000Y-117560000D02*
X149540000Y-117590000D01*
X149370000Y-117560000D02*
X149490000Y-117560000D01*
X149330000Y-117530000D02*
X149370000Y-117560000D01*
X149380000Y-117830000D02*
X149330000Y-117790000D01*
X149500000Y-117830000D02*
X149380000Y-117830000D01*
X149550000Y-117790000D02*
X149500000Y-117830000D01*
X149570000Y-117730000D02*
X149550000Y-117790000D01*
X149570000Y-117660000D02*
X149570000Y-117730000D01*
X149540000Y-117590000D02*
X149570000Y-117660000D01*
X150120000Y-117370000D02*
X150020000Y-117830000D01*
X150020000Y-117830000D02*
X149930000Y-117490000D01*
X149930000Y-117490000D02*
X149830000Y-117830000D01*
X149830000Y-117830000D02*
X149730000Y-117370000D01*
X150310000Y-117800000D02*
X150350000Y-117830000D01*
X150350000Y-117830000D02*
X150460000Y-117830000D01*
X150460000Y-117830000D02*
X150500000Y-117800000D01*
X150500000Y-117800000D02*
X150520000Y-117770000D01*
X150520000Y-117770000D02*
X150550000Y-117700000D01*
X150550000Y-117700000D02*
X150550000Y-117500000D01*
X150550000Y-117500000D02*
X150520000Y-117430000D01*
X150520000Y-117430000D02*
X150500000Y-117400000D01*
X150500000Y-117400000D02*
X150440000Y-117360000D01*
X150440000Y-117360000D02*
X150370000Y-117360000D01*
X150370000Y-117360000D02*
X150310000Y-117400000D01*
X150310000Y-117130000D02*
X150310000Y-117830000D01*
X150830000Y-117490000D02*
X150810000Y-117420000D01*
X150810000Y-117420000D02*
X150790000Y-117400000D01*
X150790000Y-117400000D02*
X150740000Y-117370000D01*
X150740000Y-117370000D02*
X150690000Y-117370000D01*
X150830000Y-117370000D02*
X150830000Y-117830000D01*
X151280000Y-117590000D02*
X151310000Y-117660000D01*
X151310000Y-117660000D02*
X151310000Y-117730000D01*
X151310000Y-117730000D02*
X151290000Y-117790000D01*
X151290000Y-117790000D02*
X151240000Y-117830000D01*
X151240000Y-117830000D02*
X151120000Y-117830000D01*
X151120000Y-117830000D02*
X151070000Y-117790000D01*
X151070000Y-117530000D02*
X151110000Y-117560000D01*
X151110000Y-117560000D02*
X151230000Y-117560000D01*
X151230000Y-117560000D02*
X151280000Y-117590000D01*
X151290000Y-117400000D02*
X151240000Y-117370000D01*
X151240000Y-117370000D02*
X151140000Y-117370000D01*
X151140000Y-117370000D02*
X151100000Y-117400000D01*
X151100000Y-117400000D02*
X151070000Y-117460000D01*
X151070000Y-117460000D02*
X151070000Y-117830000D01*
X151740000Y-117440000D02*
X151720000Y-117400000D01*
X151720000Y-117400000D02*
X151670000Y-117370000D01*
X151670000Y-117370000D02*
X151590000Y-117370000D01*
X151590000Y-117370000D02*
X151550000Y-117400000D01*
X151550000Y-117400000D02*
X151530000Y-117460000D01*
X151530000Y-117460000D02*
X151530000Y-117830000D01*
X151740000Y-117130000D02*
X151740000Y-117830000D01*
X152790000Y-117600000D02*
X153020000Y-117600000D01*
X152570000Y-117430000D02*
X152550000Y-117400000D01*
X152550000Y-117400000D02*
X152510000Y-117370000D01*
X152510000Y-117370000D02*
X152420000Y-117370000D01*
X152420000Y-117370000D02*
X152380000Y-117400000D01*
X152380000Y-117400000D02*
X152360000Y-117460000D01*
X152360000Y-117460000D02*
X152360000Y-117830000D01*
X152570000Y-117370000D02*
X152570000Y-117830000D01*
X152790000Y-117600000D02*
X152790000Y-117480000D01*
X152790000Y-117480000D02*
X152810000Y-117410000D01*
X152810000Y-117410000D02*
X152850000Y-117370000D01*
X152850000Y-117370000D02*
X152950000Y-117370000D01*
X152950000Y-117370000D02*
X152990000Y-117400000D01*
X152990000Y-117400000D02*
X153020000Y-117460000D01*
X153020000Y-117460000D02*
X153020000Y-117730000D01*
X153020000Y-117730000D02*
X153000000Y-117800000D01*
X153000000Y-117800000D02*
X152960000Y-117830000D01*
X152960000Y-117830000D02*
X152860000Y-117830000D01*
X152860000Y-117830000D02*
X152810000Y-117800000D01*
X153450000Y-117400000D02*
X153410000Y-117370000D01*
X153410000Y-117370000D02*
X153310000Y-117370000D01*
X153310000Y-117370000D02*
X153270000Y-117400000D01*
X153270000Y-117400000D02*
X153240000Y-117430000D01*
X153240000Y-117430000D02*
X153220000Y-117490000D01*
X153220000Y-117490000D02*
X153220000Y-117710000D01*
X153220000Y-117710000D02*
X153240000Y-117770000D01*
X153240000Y-117770000D02*
X153260000Y-117800000D01*
X153260000Y-117800000D02*
X153300000Y-117830000D01*
X153300000Y-117830000D02*
X153400000Y-117830000D01*
X153400000Y-117830000D02*
X153450000Y-117800000D01*
X153450000Y-118070000D02*
X153450000Y-117370000D01*
X153760000Y-117370000D02*
X153840000Y-117370000D01*
X153840000Y-117370000D02*
X153880000Y-117400000D01*
X153880000Y-117400000D02*
X153900000Y-117430000D01*
X153900000Y-117430000D02*
X153930000Y-117500000D01*
X153840000Y-117830000D02*
X153760000Y-117830000D01*
X153760000Y-117830000D02*
X153710000Y-117800000D01*
X153710000Y-117800000D02*
X153690000Y-117770000D01*
X153690000Y-117770000D02*
X153670000Y-117700000D01*
X153670000Y-117700000D02*
X153670000Y-117500000D01*
X153670000Y-117500000D02*
X153690000Y-117440000D01*
X153690000Y-117440000D02*
X153710000Y-117410000D01*
X153710000Y-117410000D02*
X153760000Y-117370000D01*
X153930000Y-117500000D02*
X153930000Y-117700000D01*
X153930000Y-117700000D02*
X153910000Y-117760000D01*
X153910000Y-117760000D02*
X153890000Y-117790000D01*
X153890000Y-117790000D02*
X153840000Y-117830000D01*
D15*
G36*
X152763840Y-116995360D02*
X152738440Y-116980120D01*
X152680020Y-116944560D01*
X152596200Y-116888680D01*
X152497140Y-116822640D01*
X152398080Y-116756600D01*
X152316800Y-116703260D01*
X152260920Y-116665160D01*
X152235520Y-116652460D01*
X152222820Y-116657540D01*
X152177100Y-116680400D01*
X152108520Y-116715960D01*
X152067880Y-116736280D01*
X152006920Y-116761680D01*
X151973900Y-116769300D01*
X151968820Y-116759140D01*
X151945960Y-116710880D01*
X151910400Y-116629600D01*
X151864680Y-116520380D01*
X151808800Y-116393380D01*
X151752920Y-116258760D01*
X151694500Y-116119060D01*
X151638620Y-115984440D01*
X151590360Y-115865060D01*
X151549720Y-115768540D01*
X151524320Y-115699960D01*
X151514160Y-115672020D01*
X151516700Y-115664400D01*
X151549720Y-115633920D01*
X151603060Y-115593280D01*
X151722440Y-115496760D01*
X151839280Y-115351980D01*
X151910400Y-115186880D01*
X151933260Y-115001460D01*
X151912940Y-114831280D01*
X151846900Y-114668720D01*
X151732600Y-114521400D01*
X151592900Y-114412180D01*
X151430340Y-114343600D01*
X151250000Y-114320740D01*
X151077280Y-114341060D01*
X150909640Y-114407100D01*
X150762320Y-114518860D01*
X150698820Y-114589980D01*
X150612460Y-114739840D01*
X150564200Y-114897320D01*
X150559120Y-114937960D01*
X150566740Y-115113220D01*
X150617540Y-115283400D01*
X150711520Y-115433260D01*
X150841060Y-115557720D01*
X150856300Y-115567880D01*
X150914720Y-115613600D01*
X150955360Y-115644080D01*
X150985840Y-115669480D01*
X150762320Y-116207960D01*
X150726760Y-116291780D01*
X150665800Y-116439100D01*
X150612460Y-116566100D01*
X150569280Y-116667700D01*
X150538800Y-116733740D01*
X150526100Y-116761680D01*
X150526100Y-116764220D01*
X150505780Y-116766760D01*
X150465140Y-116751520D01*
X150388940Y-116715960D01*
X150340680Y-116690560D01*
X150282260Y-116662620D01*
X150256860Y-116652460D01*
X150234000Y-116665160D01*
X150180660Y-116700720D01*
X150099380Y-116754060D01*
X150002860Y-116817560D01*
X149911420Y-116881060D01*
X149827600Y-116936940D01*
X149766640Y-116975040D01*
X149736160Y-116992820D01*
X149731080Y-116992820D01*
X149705680Y-116977580D01*
X149657420Y-116936940D01*
X149583760Y-116868360D01*
X149479620Y-116764220D01*
X149464380Y-116748980D01*
X149378020Y-116662620D01*
X149309440Y-116588960D01*
X149263720Y-116538160D01*
X149245940Y-116515300D01*
X149245940Y-116515300D01*
X149261180Y-116484820D01*
X149299280Y-116423860D01*
X149355160Y-116337500D01*
X149423740Y-116238440D01*
X149601540Y-115979360D01*
X149505020Y-115735520D01*
X149474540Y-115659320D01*
X149436440Y-115570420D01*
X149408500Y-115504380D01*
X149393260Y-115476440D01*
X149367860Y-115466280D01*
X149299280Y-115451040D01*
X149202760Y-115430720D01*
X149088460Y-115410400D01*
X148976700Y-115390080D01*
X148877640Y-115369760D01*
X148806520Y-115357060D01*
X148773500Y-115349440D01*
X148765880Y-115344360D01*
X148758260Y-115329120D01*
X148755720Y-115296100D01*
X148753180Y-115235140D01*
X148750640Y-115141160D01*
X148750640Y-115001460D01*
X148750640Y-114986220D01*
X148753180Y-114856680D01*
X148755720Y-114750000D01*
X148758260Y-114683960D01*
X148763340Y-114656020D01*
X148763340Y-114656020D01*
X148793820Y-114648400D01*
X148864940Y-114633160D01*
X148964000Y-114615380D01*
X149083380Y-114592520D01*
X149091000Y-114589980D01*
X149207840Y-114567120D01*
X149306900Y-114546800D01*
X149378020Y-114531560D01*
X149405960Y-114521400D01*
X149413580Y-114513780D01*
X149436440Y-114468060D01*
X149469460Y-114394400D01*
X149510100Y-114305500D01*
X149548200Y-114211520D01*
X149581220Y-114127700D01*
X149604080Y-114066740D01*
X149611700Y-114038800D01*
X149609160Y-114036260D01*
X149591380Y-114008320D01*
X149550740Y-113947360D01*
X149494860Y-113863540D01*
X149426280Y-113761940D01*
X149421200Y-113754320D01*
X149352620Y-113655260D01*
X149296740Y-113568900D01*
X149261180Y-113510480D01*
X149245940Y-113482540D01*
X149245940Y-113480000D01*
X149268800Y-113449520D01*
X149319600Y-113393640D01*
X149393260Y-113317440D01*
X149479620Y-113228540D01*
X149507560Y-113203140D01*
X149606620Y-113106620D01*
X149672660Y-113045660D01*
X149715840Y-113012640D01*
X149736160Y-113005020D01*
X149736160Y-113005020D01*
X149766640Y-113022800D01*
X149830140Y-113063440D01*
X149913960Y-113121860D01*
X150015560Y-113190440D01*
X150023180Y-113195520D01*
X150122240Y-113264100D01*
X150206060Y-113319980D01*
X150264480Y-113360620D01*
X150292420Y-113375860D01*
X150294960Y-113375860D01*
X150335600Y-113363160D01*
X150406720Y-113337760D01*
X150495620Y-113304740D01*
X150587060Y-113266640D01*
X150670880Y-113231080D01*
X150734380Y-113203140D01*
X150764860Y-113185360D01*
X150764860Y-113185360D01*
X150775020Y-113149800D01*
X150792800Y-113073600D01*
X150813120Y-112972000D01*
X150838520Y-112850080D01*
X150841060Y-112829760D01*
X150863920Y-112710380D01*
X150881700Y-112611320D01*
X150896940Y-112542740D01*
X150904560Y-112514800D01*
X150919800Y-112512260D01*
X150978220Y-112507180D01*
X151067120Y-112504640D01*
X151176340Y-112504640D01*
X151288100Y-112504640D01*
X151397320Y-112507180D01*
X151491300Y-112509720D01*
X151559880Y-112514800D01*
X151587820Y-112519880D01*
X151587820Y-112522420D01*
X151597980Y-112560520D01*
X151615760Y-112634180D01*
X151636080Y-112738320D01*
X151658940Y-112860240D01*
X151664020Y-112883100D01*
X151686880Y-112999940D01*
X151707200Y-113099000D01*
X151719900Y-113165040D01*
X151727520Y-113192980D01*
X151740220Y-113198060D01*
X151788480Y-113218380D01*
X151867220Y-113251400D01*
X151966280Y-113292040D01*
X152194880Y-113383480D01*
X152476820Y-113192980D01*
X152502220Y-113175200D01*
X152603820Y-113106620D01*
X152685100Y-113050740D01*
X152743520Y-113012640D01*
X152766380Y-112999940D01*
X152768920Y-112999940D01*
X152796860Y-113025340D01*
X152852740Y-113078680D01*
X152928940Y-113152340D01*
X153017840Y-113238700D01*
X153081340Y-113304740D01*
X153160080Y-113383480D01*
X153208340Y-113436820D01*
X153236280Y-113469840D01*
X153243900Y-113490160D01*
X153241360Y-113505400D01*
X153223580Y-113533340D01*
X153182940Y-113594300D01*
X153124520Y-113680660D01*
X153055940Y-113779720D01*
X153000060Y-113863540D01*
X152939100Y-113957520D01*
X152901000Y-114023560D01*
X152885760Y-114056580D01*
X152890840Y-114069280D01*
X152908620Y-114125160D01*
X152944180Y-114208980D01*
X152984820Y-114308040D01*
X153083880Y-114529020D01*
X153228660Y-114556960D01*
X153317560Y-114574740D01*
X153439480Y-114597600D01*
X153558860Y-114620460D01*
X153741740Y-114656020D01*
X153749360Y-115331660D01*
X153721420Y-115344360D01*
X153693480Y-115351980D01*
X153624900Y-115367220D01*
X153528380Y-115387540D01*
X153411540Y-115407860D01*
X153315020Y-115425640D01*
X153215960Y-115445960D01*
X153144840Y-115458660D01*
X153114360Y-115466280D01*
X153104200Y-115476440D01*
X153081340Y-115524700D01*
X153045780Y-115600900D01*
X153005140Y-115692340D01*
X152967040Y-115786320D01*
X152931480Y-115875220D01*
X152908620Y-115941260D01*
X152898460Y-115974280D01*
X152911160Y-116002220D01*
X152949260Y-116060640D01*
X153002600Y-116141920D01*
X153071180Y-116240980D01*
X153137220Y-116337500D01*
X153195640Y-116421320D01*
X153233740Y-116482280D01*
X153251520Y-116510220D01*
X153241360Y-116528000D01*
X153203260Y-116576260D01*
X153129600Y-116652460D01*
X153017840Y-116761680D01*
X153000060Y-116779460D01*
X152913700Y-116863280D01*
X152840040Y-116931860D01*
X152786700Y-116977580D01*
X152763840Y-116995360D01*
X152763840Y-116995360D01*
G37*
X152763840Y-116995360D02*
X152738440Y-116980120D01*
X152680020Y-116944560D01*
X152596200Y-116888680D01*
X152497140Y-116822640D01*
X152398080Y-116756600D01*
X152316800Y-116703260D01*
X152260920Y-116665160D01*
X152235520Y-116652460D01*
X152222820Y-116657540D01*
X152177100Y-116680400D01*
X152108520Y-116715960D01*
X152067880Y-116736280D01*
X152006920Y-116761680D01*
X151973900Y-116769300D01*
X151968820Y-116759140D01*
X151945960Y-116710880D01*
X151910400Y-116629600D01*
X151864680Y-116520380D01*
X151808800Y-116393380D01*
X151752920Y-116258760D01*
X151694500Y-116119060D01*
X151638620Y-115984440D01*
X151590360Y-115865060D01*
X151549720Y-115768540D01*
X151524320Y-115699960D01*
X151514160Y-115672020D01*
X151516700Y-115664400D01*
X151549720Y-115633920D01*
X151603060Y-115593280D01*
X151722440Y-115496760D01*
X151839280Y-115351980D01*
X151910400Y-115186880D01*
X151933260Y-115001460D01*
X151912940Y-114831280D01*
X151846900Y-114668720D01*
X151732600Y-114521400D01*
X151592900Y-114412180D01*
X151430340Y-114343600D01*
X151250000Y-114320740D01*
X151077280Y-114341060D01*
X150909640Y-114407100D01*
X150762320Y-114518860D01*
X150698820Y-114589980D01*
X150612460Y-114739840D01*
X150564200Y-114897320D01*
X150559120Y-114937960D01*
X150566740Y-115113220D01*
X150617540Y-115283400D01*
X150711520Y-115433260D01*
X150841060Y-115557720D01*
X150856300Y-115567880D01*
X150914720Y-115613600D01*
X150955360Y-115644080D01*
X150985840Y-115669480D01*
X150762320Y-116207960D01*
X150726760Y-116291780D01*
X150665800Y-116439100D01*
X150612460Y-116566100D01*
X150569280Y-116667700D01*
X150538800Y-116733740D01*
X150526100Y-116761680D01*
X150526100Y-116764220D01*
X150505780Y-116766760D01*
X150465140Y-116751520D01*
X150388940Y-116715960D01*
X150340680Y-116690560D01*
X150282260Y-116662620D01*
X150256860Y-116652460D01*
X150234000Y-116665160D01*
X150180660Y-116700720D01*
X150099380Y-116754060D01*
X150002860Y-116817560D01*
X149911420Y-116881060D01*
X149827600Y-116936940D01*
X149766640Y-116975040D01*
X149736160Y-116992820D01*
X149731080Y-116992820D01*
X149705680Y-116977580D01*
X149657420Y-116936940D01*
X149583760Y-116868360D01*
X149479620Y-116764220D01*
X149464380Y-116748980D01*
X149378020Y-116662620D01*
X149309440Y-116588960D01*
X149263720Y-116538160D01*
X149245940Y-116515300D01*
X149245940Y-116515300D01*
X149261180Y-116484820D01*
X149299280Y-116423860D01*
X149355160Y-116337500D01*
X149423740Y-116238440D01*
X149601540Y-115979360D01*
X149505020Y-115735520D01*
X149474540Y-115659320D01*
X149436440Y-115570420D01*
X149408500Y-115504380D01*
X149393260Y-115476440D01*
X149367860Y-115466280D01*
X149299280Y-115451040D01*
X149202760Y-115430720D01*
X149088460Y-115410400D01*
X148976700Y-115390080D01*
X148877640Y-115369760D01*
X148806520Y-115357060D01*
X148773500Y-115349440D01*
X148765880Y-115344360D01*
X148758260Y-115329120D01*
X148755720Y-115296100D01*
X148753180Y-115235140D01*
X148750640Y-115141160D01*
X148750640Y-115001460D01*
X148750640Y-114986220D01*
X148753180Y-114856680D01*
X148755720Y-114750000D01*
X148758260Y-114683960D01*
X148763340Y-114656020D01*
X148763340Y-114656020D01*
X148793820Y-114648400D01*
X148864940Y-114633160D01*
X148964000Y-114615380D01*
X149083380Y-114592520D01*
X149091000Y-114589980D01*
X149207840Y-114567120D01*
X149306900Y-114546800D01*
X149378020Y-114531560D01*
X149405960Y-114521400D01*
X149413580Y-114513780D01*
X149436440Y-114468060D01*
X149469460Y-114394400D01*
X149510100Y-114305500D01*
X149548200Y-114211520D01*
X149581220Y-114127700D01*
X149604080Y-114066740D01*
X149611700Y-114038800D01*
X149609160Y-114036260D01*
X149591380Y-114008320D01*
X149550740Y-113947360D01*
X149494860Y-113863540D01*
X149426280Y-113761940D01*
X149421200Y-113754320D01*
X149352620Y-113655260D01*
X149296740Y-113568900D01*
X149261180Y-113510480D01*
X149245940Y-113482540D01*
X149245940Y-113480000D01*
X149268800Y-113449520D01*
X149319600Y-113393640D01*
X149393260Y-113317440D01*
X149479620Y-113228540D01*
X149507560Y-113203140D01*
X149606620Y-113106620D01*
X149672660Y-113045660D01*
X149715840Y-113012640D01*
X149736160Y-113005020D01*
X149736160Y-113005020D01*
X149766640Y-113022800D01*
X149830140Y-113063440D01*
X149913960Y-113121860D01*
X150015560Y-113190440D01*
X150023180Y-113195520D01*
X150122240Y-113264100D01*
X150206060Y-113319980D01*
X150264480Y-113360620D01*
X150292420Y-113375860D01*
X150294960Y-113375860D01*
X150335600Y-113363160D01*
X150406720Y-113337760D01*
X150495620Y-113304740D01*
X150587060Y-113266640D01*
X150670880Y-113231080D01*
X150734380Y-113203140D01*
X150764860Y-113185360D01*
X150764860Y-113185360D01*
X150775020Y-113149800D01*
X150792800Y-113073600D01*
X150813120Y-112972000D01*
X150838520Y-112850080D01*
X150841060Y-112829760D01*
X150863920Y-112710380D01*
X150881700Y-112611320D01*
X150896940Y-112542740D01*
X150904560Y-112514800D01*
X150919800Y-112512260D01*
X150978220Y-112507180D01*
X151067120Y-112504640D01*
X151176340Y-112504640D01*
X151288100Y-112504640D01*
X151397320Y-112507180D01*
X151491300Y-112509720D01*
X151559880Y-112514800D01*
X151587820Y-112519880D01*
X151587820Y-112522420D01*
X151597980Y-112560520D01*
X151615760Y-112634180D01*
X151636080Y-112738320D01*
X151658940Y-112860240D01*
X151664020Y-112883100D01*
X151686880Y-112999940D01*
X151707200Y-113099000D01*
X151719900Y-113165040D01*
X151727520Y-113192980D01*
X151740220Y-113198060D01*
X151788480Y-113218380D01*
X151867220Y-113251400D01*
X151966280Y-113292040D01*
X152194880Y-113383480D01*
X152476820Y-113192980D01*
X152502220Y-113175200D01*
X152603820Y-113106620D01*
X152685100Y-113050740D01*
X152743520Y-113012640D01*
X152766380Y-112999940D01*
X152768920Y-112999940D01*
X152796860Y-113025340D01*
X152852740Y-113078680D01*
X152928940Y-113152340D01*
X153017840Y-113238700D01*
X153081340Y-113304740D01*
X153160080Y-113383480D01*
X153208340Y-113436820D01*
X153236280Y-113469840D01*
X153243900Y-113490160D01*
X153241360Y-113505400D01*
X153223580Y-113533340D01*
X153182940Y-113594300D01*
X153124520Y-113680660D01*
X153055940Y-113779720D01*
X153000060Y-113863540D01*
X152939100Y-113957520D01*
X152901000Y-114023560D01*
X152885760Y-114056580D01*
X152890840Y-114069280D01*
X152908620Y-114125160D01*
X152944180Y-114208980D01*
X152984820Y-114308040D01*
X153083880Y-114529020D01*
X153228660Y-114556960D01*
X153317560Y-114574740D01*
X153439480Y-114597600D01*
X153558860Y-114620460D01*
X153741740Y-114656020D01*
X153749360Y-115331660D01*
X153721420Y-115344360D01*
X153693480Y-115351980D01*
X153624900Y-115367220D01*
X153528380Y-115387540D01*
X153411540Y-115407860D01*
X153315020Y-115425640D01*
X153215960Y-115445960D01*
X153144840Y-115458660D01*
X153114360Y-115466280D01*
X153104200Y-115476440D01*
X153081340Y-115524700D01*
X153045780Y-115600900D01*
X153005140Y-115692340D01*
X152967040Y-115786320D01*
X152931480Y-115875220D01*
X152908620Y-115941260D01*
X152898460Y-115974280D01*
X152911160Y-116002220D01*
X152949260Y-116060640D01*
X153002600Y-116141920D01*
X153071180Y-116240980D01*
X153137220Y-116337500D01*
X153195640Y-116421320D01*
X153233740Y-116482280D01*
X153251520Y-116510220D01*
X153241360Y-116528000D01*
X153203260Y-116576260D01*
X153129600Y-116652460D01*
X153017840Y-116761680D01*
X153000060Y-116779460D01*
X152913700Y-116863280D01*
X152840040Y-116931860D01*
X152786700Y-116977580D01*
X152763840Y-116995360D01*
G36*
X141310360Y-97472500D02*
X141317980Y-97800160D01*
X141333220Y-98033840D01*
X141368780Y-98214180D01*
X141424660Y-98379280D01*
X141467840Y-98473260D01*
X141767560Y-98973640D01*
X141851380Y-99062540D01*
X141851380Y-96311720D01*
X142179040Y-96311720D01*
X142372080Y-96314260D01*
X142466060Y-96339660D01*
X142501620Y-96405700D01*
X142506700Y-96494600D01*
X142488920Y-96657160D01*
X142420340Y-96735900D01*
X142270480Y-96753680D01*
X142153640Y-96748600D01*
X141986000Y-96728280D01*
X141904720Y-96674940D01*
X141876780Y-96558100D01*
X141871700Y-96520000D01*
X141851380Y-96311720D01*
X141851380Y-99062540D01*
X141859000Y-99072700D01*
X141859000Y-98503740D01*
X141859000Y-98280220D01*
X141859000Y-98054160D01*
X141859000Y-97924620D01*
X141859000Y-97698560D01*
X141859000Y-97472500D01*
X141859000Y-97342960D01*
X141859000Y-97119440D01*
X141859000Y-96893380D01*
X142181580Y-96893380D01*
X142506700Y-96893380D01*
X142506700Y-97119440D01*
X142506700Y-97342960D01*
X142181580Y-97342960D01*
X141859000Y-97342960D01*
X141859000Y-97472500D01*
X142181580Y-97472500D01*
X142506700Y-97472500D01*
X142506700Y-97698560D01*
X142506700Y-97924620D01*
X142181580Y-97924620D01*
X141859000Y-97924620D01*
X141859000Y-98054160D01*
X142181580Y-98054160D01*
X142506700Y-98054160D01*
X142506700Y-98280220D01*
X142506700Y-98503740D01*
X142181580Y-98503740D01*
X141859000Y-98503740D01*
X141859000Y-99072700D01*
X142140940Y-99372420D01*
X142570200Y-99659440D01*
X142570200Y-98861880D01*
X142570200Y-96248220D01*
X142570200Y-95920560D01*
X142570200Y-95592900D01*
X142778480Y-95613220D01*
X142905480Y-95633540D01*
X142971520Y-95689420D01*
X142999460Y-95813880D01*
X143009620Y-95940880D01*
X143027400Y-96248220D01*
X142798800Y-96248220D01*
X142570200Y-96248220D01*
X142570200Y-98861880D01*
X142575280Y-98681540D01*
X142608300Y-98597720D01*
X142694660Y-98569780D01*
X142796260Y-98569780D01*
X142935960Y-98574860D01*
X142999460Y-98615500D01*
X143019780Y-98729800D01*
X143019780Y-98861880D01*
X143017240Y-99039680D01*
X142984220Y-99120960D01*
X142897860Y-99148900D01*
X142796260Y-99151440D01*
X142656560Y-99143820D01*
X142590520Y-99103180D01*
X142572740Y-98988880D01*
X142570200Y-98861880D01*
X142570200Y-99659440D01*
X142600680Y-99682300D01*
X143002000Y-99860100D01*
X143149320Y-99903280D01*
X143149320Y-98861880D01*
X143149320Y-96248220D01*
X143149320Y-95925640D01*
X143149320Y-95600520D01*
X143375380Y-95600520D01*
X143601440Y-95600520D01*
X143601440Y-95925640D01*
X143601440Y-96248220D01*
X143375380Y-96248220D01*
X143149320Y-96248220D01*
X143149320Y-98861880D01*
X143156940Y-98681540D01*
X143189960Y-98597720D01*
X143276320Y-98569780D01*
X143375380Y-98569780D01*
X143515080Y-98574860D01*
X143581120Y-98615500D01*
X143601440Y-98729800D01*
X143601440Y-98861880D01*
X143596360Y-99039680D01*
X143563340Y-99120960D01*
X143476980Y-99148900D01*
X143375380Y-99151440D01*
X143238220Y-99143820D01*
X143172180Y-99103180D01*
X143151860Y-98988880D01*
X143149320Y-98861880D01*
X143149320Y-99903280D01*
X143238220Y-99933760D01*
X143449040Y-99974400D01*
X143695420Y-99984560D01*
X143746220Y-99982020D01*
X143746220Y-98861880D01*
X143751300Y-98681540D01*
X143764000Y-98640900D01*
X143764000Y-96034860D01*
X143764000Y-95925640D01*
X143769080Y-95745300D01*
X143804640Y-95656400D01*
X143893540Y-95623380D01*
X143972280Y-95613220D01*
X144180560Y-95592900D01*
X144180560Y-95925640D01*
X144180560Y-96255840D01*
X143972280Y-96232980D01*
X143842740Y-96215200D01*
X143784320Y-96161860D01*
X143764000Y-96034860D01*
X143764000Y-98640900D01*
X143779240Y-98597720D01*
X143865600Y-98569780D01*
X143962120Y-98569780D01*
X144099280Y-98574860D01*
X144162780Y-98618040D01*
X144180560Y-98732340D01*
X144180560Y-98861880D01*
X144178020Y-99039680D01*
X144145000Y-99120960D01*
X144058640Y-99148900D01*
X143967200Y-99151440D01*
X143835120Y-99143820D01*
X143771620Y-99098100D01*
X143751300Y-98983800D01*
X143746220Y-98861880D01*
X143746220Y-99982020D01*
X143977360Y-99976940D01*
X144297400Y-99954080D01*
X144358360Y-99941380D01*
X144358360Y-98991420D01*
X144360900Y-98958400D01*
X144360900Y-95681800D01*
X144404080Y-95643700D01*
X144533620Y-95615760D01*
X144548860Y-95615760D01*
X144757140Y-95592900D01*
X144774920Y-95966280D01*
X144795240Y-96339660D01*
X144828260Y-96337120D01*
X144828260Y-96022160D01*
X144828260Y-95763080D01*
X144858740Y-95730060D01*
X144891760Y-95763080D01*
X144858740Y-95793560D01*
X144828260Y-95763080D01*
X144828260Y-96022160D01*
X144858740Y-95989140D01*
X144891760Y-96022160D01*
X144858740Y-96055180D01*
X144828260Y-96022160D01*
X144828260Y-96337120D01*
X145133060Y-96319340D01*
X145331180Y-96311720D01*
X145432780Y-96329500D01*
X145468340Y-96387920D01*
X145473420Y-96494600D01*
X145463260Y-96619060D01*
X145407380Y-96680020D01*
X145270220Y-96705420D01*
X145199100Y-96710500D01*
X144988280Y-96720660D01*
X144876520Y-96705420D01*
X144833340Y-96652080D01*
X144828260Y-96598740D01*
X144800320Y-96517460D01*
X144780000Y-96512380D01*
X144630140Y-96507300D01*
X144579340Y-96426020D01*
X144589500Y-96375220D01*
X144586960Y-96273620D01*
X144498060Y-96248220D01*
X144416780Y-96222820D01*
X144383760Y-96128840D01*
X144376140Y-95989140D01*
X144373600Y-95811340D01*
X144363440Y-95697040D01*
X144360900Y-95681800D01*
X144360900Y-98958400D01*
X144365980Y-98861880D01*
X144386300Y-98681540D01*
X144429480Y-98595180D01*
X144515840Y-98569780D01*
X144576800Y-98569780D01*
X144691100Y-98577400D01*
X144744440Y-98628200D01*
X144762220Y-98755200D01*
X144762220Y-98861880D01*
X144759680Y-99039680D01*
X144726660Y-99120960D01*
X144640300Y-99148900D01*
X144553940Y-99151440D01*
X144426940Y-99143820D01*
X144368520Y-99103180D01*
X144358360Y-98991420D01*
X144358360Y-99941380D01*
X144538700Y-99913440D01*
X144759680Y-99842320D01*
X144820640Y-99811840D01*
X144820640Y-96893380D01*
X145145760Y-96893380D01*
X145338800Y-96895920D01*
X145435320Y-96921320D01*
X145468340Y-96987360D01*
X145473420Y-97078800D01*
X145455640Y-97210880D01*
X145381980Y-97279460D01*
X145229580Y-97307400D01*
X145059400Y-97304860D01*
X144917160Y-97282000D01*
X144856200Y-97203260D01*
X144840960Y-97096580D01*
X144820640Y-96893380D01*
X144820640Y-99811840D01*
X144858740Y-99796600D01*
X144858740Y-98280220D01*
X144858740Y-97698560D01*
X144868900Y-97581720D01*
X144917160Y-97520760D01*
X145041620Y-97495360D01*
X145166080Y-97485200D01*
X145473420Y-97464880D01*
X145473420Y-97698560D01*
X145473420Y-97932240D01*
X145166080Y-97911920D01*
X144980660Y-97894140D01*
X144891760Y-97858580D01*
X144863820Y-97779840D01*
X144858740Y-97698560D01*
X144858740Y-98280220D01*
X144868900Y-98160840D01*
X144917160Y-98102420D01*
X145041620Y-98074480D01*
X145166080Y-98064320D01*
X145473420Y-98046540D01*
X145473420Y-98280220D01*
X145473420Y-98511360D01*
X145166080Y-98493580D01*
X144980660Y-98475800D01*
X144891760Y-98437700D01*
X144863820Y-98358960D01*
X144858740Y-98280220D01*
X144858740Y-99796600D01*
X144970500Y-99745800D01*
X145196560Y-99623880D01*
X145384520Y-99504500D01*
X145498820Y-99413060D01*
X145569940Y-99347020D01*
X145635980Y-99331780D01*
X145729960Y-99372420D01*
X145729960Y-96680020D01*
X145773140Y-96329500D01*
X145917920Y-95996760D01*
X146164300Y-95704660D01*
X146301460Y-95595440D01*
X146451320Y-95509080D01*
X146613880Y-95460820D01*
X146834860Y-95443040D01*
X146994880Y-95440500D01*
X147248880Y-95445580D01*
X147421600Y-95468440D01*
X147556220Y-95526860D01*
X147695920Y-95628460D01*
X147708620Y-95638620D01*
X147927060Y-95859600D01*
X148104860Y-96133920D01*
X148219160Y-96413320D01*
X148247100Y-96598740D01*
X148219160Y-96860360D01*
X148150580Y-97119440D01*
X148051520Y-97322640D01*
X148005800Y-97381060D01*
X147939760Y-97462340D01*
X147965160Y-97528380D01*
X148059140Y-97602040D01*
X148160740Y-97693480D01*
X148328380Y-97858580D01*
X148536660Y-98071940D01*
X148765260Y-98315780D01*
X148793200Y-98346260D01*
X149369780Y-98973640D01*
X149214840Y-99098100D01*
X149059900Y-99225100D01*
X148635720Y-98785680D01*
X148409660Y-98544380D01*
X148181060Y-98300540D01*
X147990560Y-98087180D01*
X147947380Y-98036380D01*
X147683220Y-97729040D01*
X147452080Y-97828100D01*
X147076160Y-97917000D01*
X146692620Y-97881440D01*
X146519900Y-97825560D01*
X146182080Y-97622360D01*
X145938240Y-97348040D01*
X145785840Y-97028000D01*
X145729960Y-96680020D01*
X145729960Y-99372420D01*
X145732500Y-99374960D01*
X145897600Y-99486720D01*
X145912840Y-99501960D01*
X146385280Y-99763580D01*
X146908520Y-99928680D01*
X147452080Y-99994720D01*
X147982940Y-99956620D01*
X148376640Y-99847400D01*
X148889720Y-99588320D01*
X149321520Y-99240340D01*
X149656800Y-98816160D01*
X149893020Y-98331020D01*
X150022560Y-97802700D01*
X150035260Y-97238820D01*
X149992080Y-96944180D01*
X149880320Y-96525080D01*
X149707600Y-96166940D01*
X149453600Y-95826580D01*
X149336760Y-95697040D01*
X148930360Y-95354140D01*
X148460460Y-95102680D01*
X147952460Y-94955360D01*
X147426680Y-94904560D01*
X146905980Y-94957900D01*
X146408140Y-95112840D01*
X145958560Y-95371920D01*
X145856960Y-95453200D01*
X145669000Y-95610680D01*
X145458180Y-95453200D01*
X144993360Y-95168720D01*
X144475200Y-94988380D01*
X144254220Y-94945200D01*
X143692880Y-94909640D01*
X143151860Y-94998540D01*
X142646400Y-95194120D01*
X142194280Y-95493840D01*
X141810740Y-95892620D01*
X141513560Y-96372680D01*
X141511020Y-96375220D01*
X141419580Y-96578420D01*
X141361160Y-96748600D01*
X141328140Y-96928940D01*
X141315440Y-97155000D01*
X141310360Y-97472500D01*
X141310360Y-97472500D01*
X141310360Y-97472500D01*
G37*
X141310360Y-97472500D02*
X141317980Y-97800160D01*
X141333220Y-98033840D01*
X141368780Y-98214180D01*
X141424660Y-98379280D01*
X141467840Y-98473260D01*
X141767560Y-98973640D01*
X141851380Y-99062540D01*
X141851380Y-96311720D01*
X142179040Y-96311720D01*
X142372080Y-96314260D01*
X142466060Y-96339660D01*
X142501620Y-96405700D01*
X142506700Y-96494600D01*
X142488920Y-96657160D01*
X142420340Y-96735900D01*
X142270480Y-96753680D01*
X142153640Y-96748600D01*
X141986000Y-96728280D01*
X141904720Y-96674940D01*
X141876780Y-96558100D01*
X141871700Y-96520000D01*
X141851380Y-96311720D01*
X141851380Y-99062540D01*
X141859000Y-99072700D01*
X141859000Y-98503740D01*
X141859000Y-98280220D01*
X141859000Y-98054160D01*
X141859000Y-97924620D01*
X141859000Y-97698560D01*
X141859000Y-97472500D01*
X141859000Y-97342960D01*
X141859000Y-97119440D01*
X141859000Y-96893380D01*
X142181580Y-96893380D01*
X142506700Y-96893380D01*
X142506700Y-97119440D01*
X142506700Y-97342960D01*
X142181580Y-97342960D01*
X141859000Y-97342960D01*
X141859000Y-97472500D01*
X142181580Y-97472500D01*
X142506700Y-97472500D01*
X142506700Y-97698560D01*
X142506700Y-97924620D01*
X142181580Y-97924620D01*
X141859000Y-97924620D01*
X141859000Y-98054160D01*
X142181580Y-98054160D01*
X142506700Y-98054160D01*
X142506700Y-98280220D01*
X142506700Y-98503740D01*
X142181580Y-98503740D01*
X141859000Y-98503740D01*
X141859000Y-99072700D01*
X142140940Y-99372420D01*
X142570200Y-99659440D01*
X142570200Y-98861880D01*
X142570200Y-96248220D01*
X142570200Y-95920560D01*
X142570200Y-95592900D01*
X142778480Y-95613220D01*
X142905480Y-95633540D01*
X142971520Y-95689420D01*
X142999460Y-95813880D01*
X143009620Y-95940880D01*
X143027400Y-96248220D01*
X142798800Y-96248220D01*
X142570200Y-96248220D01*
X142570200Y-98861880D01*
X142575280Y-98681540D01*
X142608300Y-98597720D01*
X142694660Y-98569780D01*
X142796260Y-98569780D01*
X142935960Y-98574860D01*
X142999460Y-98615500D01*
X143019780Y-98729800D01*
X143019780Y-98861880D01*
X143017240Y-99039680D01*
X142984220Y-99120960D01*
X142897860Y-99148900D01*
X142796260Y-99151440D01*
X142656560Y-99143820D01*
X142590520Y-99103180D01*
X142572740Y-98988880D01*
X142570200Y-98861880D01*
X142570200Y-99659440D01*
X142600680Y-99682300D01*
X143002000Y-99860100D01*
X143149320Y-99903280D01*
X143149320Y-98861880D01*
X143149320Y-96248220D01*
X143149320Y-95925640D01*
X143149320Y-95600520D01*
X143375380Y-95600520D01*
X143601440Y-95600520D01*
X143601440Y-95925640D01*
X143601440Y-96248220D01*
X143375380Y-96248220D01*
X143149320Y-96248220D01*
X143149320Y-98861880D01*
X143156940Y-98681540D01*
X143189960Y-98597720D01*
X143276320Y-98569780D01*
X143375380Y-98569780D01*
X143515080Y-98574860D01*
X143581120Y-98615500D01*
X143601440Y-98729800D01*
X143601440Y-98861880D01*
X143596360Y-99039680D01*
X143563340Y-99120960D01*
X143476980Y-99148900D01*
X143375380Y-99151440D01*
X143238220Y-99143820D01*
X143172180Y-99103180D01*
X143151860Y-98988880D01*
X143149320Y-98861880D01*
X143149320Y-99903280D01*
X143238220Y-99933760D01*
X143449040Y-99974400D01*
X143695420Y-99984560D01*
X143746220Y-99982020D01*
X143746220Y-98861880D01*
X143751300Y-98681540D01*
X143764000Y-98640900D01*
X143764000Y-96034860D01*
X143764000Y-95925640D01*
X143769080Y-95745300D01*
X143804640Y-95656400D01*
X143893540Y-95623380D01*
X143972280Y-95613220D01*
X144180560Y-95592900D01*
X144180560Y-95925640D01*
X144180560Y-96255840D01*
X143972280Y-96232980D01*
X143842740Y-96215200D01*
X143784320Y-96161860D01*
X143764000Y-96034860D01*
X143764000Y-98640900D01*
X143779240Y-98597720D01*
X143865600Y-98569780D01*
X143962120Y-98569780D01*
X144099280Y-98574860D01*
X144162780Y-98618040D01*
X144180560Y-98732340D01*
X144180560Y-98861880D01*
X144178020Y-99039680D01*
X144145000Y-99120960D01*
X144058640Y-99148900D01*
X143967200Y-99151440D01*
X143835120Y-99143820D01*
X143771620Y-99098100D01*
X143751300Y-98983800D01*
X143746220Y-98861880D01*
X143746220Y-99982020D01*
X143977360Y-99976940D01*
X144297400Y-99954080D01*
X144358360Y-99941380D01*
X144358360Y-98991420D01*
X144360900Y-98958400D01*
X144360900Y-95681800D01*
X144404080Y-95643700D01*
X144533620Y-95615760D01*
X144548860Y-95615760D01*
X144757140Y-95592900D01*
X144774920Y-95966280D01*
X144795240Y-96339660D01*
X144828260Y-96337120D01*
X144828260Y-96022160D01*
X144828260Y-95763080D01*
X144858740Y-95730060D01*
X144891760Y-95763080D01*
X144858740Y-95793560D01*
X144828260Y-95763080D01*
X144828260Y-96022160D01*
X144858740Y-95989140D01*
X144891760Y-96022160D01*
X144858740Y-96055180D01*
X144828260Y-96022160D01*
X144828260Y-96337120D01*
X145133060Y-96319340D01*
X145331180Y-96311720D01*
X145432780Y-96329500D01*
X145468340Y-96387920D01*
X145473420Y-96494600D01*
X145463260Y-96619060D01*
X145407380Y-96680020D01*
X145270220Y-96705420D01*
X145199100Y-96710500D01*
X144988280Y-96720660D01*
X144876520Y-96705420D01*
X144833340Y-96652080D01*
X144828260Y-96598740D01*
X144800320Y-96517460D01*
X144780000Y-96512380D01*
X144630140Y-96507300D01*
X144579340Y-96426020D01*
X144589500Y-96375220D01*
X144586960Y-96273620D01*
X144498060Y-96248220D01*
X144416780Y-96222820D01*
X144383760Y-96128840D01*
X144376140Y-95989140D01*
X144373600Y-95811340D01*
X144363440Y-95697040D01*
X144360900Y-95681800D01*
X144360900Y-98958400D01*
X144365980Y-98861880D01*
X144386300Y-98681540D01*
X144429480Y-98595180D01*
X144515840Y-98569780D01*
X144576800Y-98569780D01*
X144691100Y-98577400D01*
X144744440Y-98628200D01*
X144762220Y-98755200D01*
X144762220Y-98861880D01*
X144759680Y-99039680D01*
X144726660Y-99120960D01*
X144640300Y-99148900D01*
X144553940Y-99151440D01*
X144426940Y-99143820D01*
X144368520Y-99103180D01*
X144358360Y-98991420D01*
X144358360Y-99941380D01*
X144538700Y-99913440D01*
X144759680Y-99842320D01*
X144820640Y-99811840D01*
X144820640Y-96893380D01*
X145145760Y-96893380D01*
X145338800Y-96895920D01*
X145435320Y-96921320D01*
X145468340Y-96987360D01*
X145473420Y-97078800D01*
X145455640Y-97210880D01*
X145381980Y-97279460D01*
X145229580Y-97307400D01*
X145059400Y-97304860D01*
X144917160Y-97282000D01*
X144856200Y-97203260D01*
X144840960Y-97096580D01*
X144820640Y-96893380D01*
X144820640Y-99811840D01*
X144858740Y-99796600D01*
X144858740Y-98280220D01*
X144858740Y-97698560D01*
X144868900Y-97581720D01*
X144917160Y-97520760D01*
X145041620Y-97495360D01*
X145166080Y-97485200D01*
X145473420Y-97464880D01*
X145473420Y-97698560D01*
X145473420Y-97932240D01*
X145166080Y-97911920D01*
X144980660Y-97894140D01*
X144891760Y-97858580D01*
X144863820Y-97779840D01*
X144858740Y-97698560D01*
X144858740Y-98280220D01*
X144868900Y-98160840D01*
X144917160Y-98102420D01*
X145041620Y-98074480D01*
X145166080Y-98064320D01*
X145473420Y-98046540D01*
X145473420Y-98280220D01*
X145473420Y-98511360D01*
X145166080Y-98493580D01*
X144980660Y-98475800D01*
X144891760Y-98437700D01*
X144863820Y-98358960D01*
X144858740Y-98280220D01*
X144858740Y-99796600D01*
X144970500Y-99745800D01*
X145196560Y-99623880D01*
X145384520Y-99504500D01*
X145498820Y-99413060D01*
X145569940Y-99347020D01*
X145635980Y-99331780D01*
X145729960Y-99372420D01*
X145729960Y-96680020D01*
X145773140Y-96329500D01*
X145917920Y-95996760D01*
X146164300Y-95704660D01*
X146301460Y-95595440D01*
X146451320Y-95509080D01*
X146613880Y-95460820D01*
X146834860Y-95443040D01*
X146994880Y-95440500D01*
X147248880Y-95445580D01*
X147421600Y-95468440D01*
X147556220Y-95526860D01*
X147695920Y-95628460D01*
X147708620Y-95638620D01*
X147927060Y-95859600D01*
X148104860Y-96133920D01*
X148219160Y-96413320D01*
X148247100Y-96598740D01*
X148219160Y-96860360D01*
X148150580Y-97119440D01*
X148051520Y-97322640D01*
X148005800Y-97381060D01*
X147939760Y-97462340D01*
X147965160Y-97528380D01*
X148059140Y-97602040D01*
X148160740Y-97693480D01*
X148328380Y-97858580D01*
X148536660Y-98071940D01*
X148765260Y-98315780D01*
X148793200Y-98346260D01*
X149369780Y-98973640D01*
X149214840Y-99098100D01*
X149059900Y-99225100D01*
X148635720Y-98785680D01*
X148409660Y-98544380D01*
X148181060Y-98300540D01*
X147990560Y-98087180D01*
X147947380Y-98036380D01*
X147683220Y-97729040D01*
X147452080Y-97828100D01*
X147076160Y-97917000D01*
X146692620Y-97881440D01*
X146519900Y-97825560D01*
X146182080Y-97622360D01*
X145938240Y-97348040D01*
X145785840Y-97028000D01*
X145729960Y-96680020D01*
X145729960Y-99372420D01*
X145732500Y-99374960D01*
X145897600Y-99486720D01*
X145912840Y-99501960D01*
X146385280Y-99763580D01*
X146908520Y-99928680D01*
X147452080Y-99994720D01*
X147982940Y-99956620D01*
X148376640Y-99847400D01*
X148889720Y-99588320D01*
X149321520Y-99240340D01*
X149656800Y-98816160D01*
X149893020Y-98331020D01*
X150022560Y-97802700D01*
X150035260Y-97238820D01*
X149992080Y-96944180D01*
X149880320Y-96525080D01*
X149707600Y-96166940D01*
X149453600Y-95826580D01*
X149336760Y-95697040D01*
X148930360Y-95354140D01*
X148460460Y-95102680D01*
X147952460Y-94955360D01*
X147426680Y-94904560D01*
X146905980Y-94957900D01*
X146408140Y-95112840D01*
X145958560Y-95371920D01*
X145856960Y-95453200D01*
X145669000Y-95610680D01*
X145458180Y-95453200D01*
X144993360Y-95168720D01*
X144475200Y-94988380D01*
X144254220Y-94945200D01*
X143692880Y-94909640D01*
X143151860Y-94998540D01*
X142646400Y-95194120D01*
X142194280Y-95493840D01*
X141810740Y-95892620D01*
X141513560Y-96372680D01*
X141511020Y-96375220D01*
X141419580Y-96578420D01*
X141361160Y-96748600D01*
X141328140Y-96928940D01*
X141315440Y-97155000D01*
X141310360Y-97472500D01*
X141310360Y-97472500D01*
G36*
X146131280Y-96532700D02*
X146149060Y-96827340D01*
X146255740Y-97104200D01*
X146438620Y-97332800D01*
X146682460Y-97485200D01*
X146956780Y-97536000D01*
X147124420Y-97508060D01*
X147317460Y-97436940D01*
X147337780Y-97424240D01*
X147601940Y-97226120D01*
X147767040Y-96974660D01*
X147833080Y-96690180D01*
X147800060Y-96400620D01*
X147662900Y-96133920D01*
X147426680Y-95915480D01*
X147398740Y-95897700D01*
X147124420Y-95803720D01*
X146829780Y-95813880D01*
X146547840Y-95915480D01*
X146316700Y-96098360D01*
X146217640Y-96240600D01*
X146131280Y-96532700D01*
X146131280Y-96532700D01*
X146131280Y-96532700D01*
G37*
X146131280Y-96532700D02*
X146149060Y-96827340D01*
X146255740Y-97104200D01*
X146438620Y-97332800D01*
X146682460Y-97485200D01*
X146956780Y-97536000D01*
X147124420Y-97508060D01*
X147317460Y-97436940D01*
X147337780Y-97424240D01*
X147601940Y-97226120D01*
X147767040Y-96974660D01*
X147833080Y-96690180D01*
X147800060Y-96400620D01*
X147662900Y-96133920D01*
X147426680Y-95915480D01*
X147398740Y-95897700D01*
X147124420Y-95803720D01*
X146829780Y-95813880D01*
X146547840Y-95915480D01*
X146316700Y-96098360D01*
X146217640Y-96240600D01*
X146131280Y-96532700D01*
X146131280Y-96532700D01*
M02*
