M48
;DRILL file {KiCad 4.0.7} date 09/27/17 05:37:31
;FORMAT={-:-/ absolute / inch / decimal}
FMAT,2
INCH,TZ
T1C0.020
T2C0.028
T3C0.028
T4C0.032
T5C0.039
%
G90
G05
M72
T1
X2.775Y-4.715
X3.79Y-2.9
X3.855Y-2.925
X3.88Y-2.825
X3.9Y-3.135
X3.915Y-2.935
X3.985Y-2.9
X4.04Y-2.905
X4.065Y-2.96
X4.105Y-4.625
X4.14Y-3.45
X4.14Y-3.56
X4.16Y-3.91
X4.2Y-3.62
X4.235Y-4.14
X4.25Y-3.155
X4.25Y-3.63
X4.28Y-3.25
X4.36Y-2.85
X4.395Y-3.23
X4.43Y-3.58
X4.45Y-3.205
X4.45Y-3.885
X4.475Y-2.94
X4.52Y-4.17
X4.535Y-4.055
X4.545Y-3.485
X4.55Y-3.245
X4.555Y-3.585
X4.56Y-3.53
X4.58Y-3.45
X4.58Y-4.2
X4.59Y-2.79
X4.645Y-3.195
X4.65Y-3.255
X4.655Y-2.96
X4.68Y-4.94
X4.685Y-4.77
X4.7Y-2.915
X4.7Y-3.58
X4.72Y-3.2
X4.73Y-3.14
X4.735Y-4.89
X4.75Y-2.865
X4.8Y-3.18
X4.805Y-3.27
X4.855Y-4.265
X4.885Y-4.225
X4.925Y-3.525
X4.935Y-4.315
X4.945Y-2.75
X4.945Y-4.845
X4.965Y-3.94
X4.975Y-4.69
X4.99Y-4.32
X5.045Y-4.32
X5.05Y-2.865
X5.06Y-3.215
X5.06Y-3.345
X5.0787Y-4.6949
X5.095Y-4.125
X5.12Y-3.585
X5.125Y-3.53
X5.14Y-3.945
X5.165Y-3.45
X5.165Y-4.19
X5.235Y-4.205
X5.295Y-3.9
X5.32Y-4.335
X5.41Y-3.87
X5.455Y-3.51
X5.46Y-4.195
X5.57Y-3.615
X5.7Y-4.425
X5.71Y-3.765
X5.715Y-3.66
X5.735Y-3.86
X5.775Y-3.425
X5.785Y-4.35
X5.815Y-3.9
X5.815Y-3.975
X5.84Y-4.18
X5.885Y-4.155
X5.9Y-3.805
X5.9Y-3.985
X5.93Y-4.065
X5.94Y-3.91
X6.005Y-3.46
T2
X6.03Y-3.7445
X6.03Y-3.9355
T4
X2.675Y-2.85
X2.675Y-4.85
X2.775Y-2.85
X2.775Y-4.85
X5.875Y-2.85
X5.9Y-4.85
X5.975Y-2.85
X6.Y-4.85
T5
X2.7Y-3.3
X2.7Y-3.4
X2.7Y-3.5
X2.7Y-3.6
X2.7Y-3.7
X2.7Y-3.8
X2.7Y-3.9
X2.7Y-4.
X2.7Y-4.1
X2.7Y-4.2
X2.7Y-4.3
X2.7Y-4.4
X2.7Y-4.5
X2.7Y-4.6
X2.8Y-3.3
X2.8Y-3.4
X2.8Y-3.5
X2.8Y-3.6
X2.8Y-3.7
X2.8Y-3.8
X2.8Y-3.9
X2.8Y-4.
X2.8Y-4.1
X2.8Y-4.2
X2.8Y-4.3
X2.8Y-4.4
X2.8Y-4.5
X2.8Y-4.6
X2.9Y-3.3
X2.9Y-3.4
X2.9Y-3.5
X2.9Y-3.6
X2.9Y-3.7
X2.9Y-3.8
X2.9Y-3.9
X2.9Y-4.
X2.9Y-4.1
X2.9Y-4.2
X2.9Y-4.3
X2.9Y-4.4
X2.9Y-4.5
X2.9Y-4.6
X2.925Y-3.025
X3.Y-3.3
X3.Y-3.4
X3.Y-3.5
X3.Y-3.6
X3.Y-3.7
X3.Y-3.8
X3.Y-3.9
X3.Y-4.
X3.Y-4.1
X3.Y-4.2
X3.Y-4.3
X3.Y-4.4
X3.Y-4.5
X3.Y-4.6
X3.025Y-3.025
X3.1Y-3.3
X3.1Y-3.4
X3.1Y-3.5
X3.1Y-3.6
X3.1Y-3.7
X3.1Y-3.8
X3.1Y-3.9
X3.1Y-4.
X3.1Y-4.1
X3.1Y-4.2
X3.1Y-4.3
X3.1Y-4.4
X3.1Y-4.5
X3.1Y-4.6
X3.125Y-3.025
X3.2Y-3.3
X3.2Y-3.4
X3.2Y-3.5
X3.2Y-3.6
X3.2Y-3.7
X3.2Y-3.8
X3.2Y-3.9
X3.2Y-4.
X3.2Y-4.1
X3.2Y-4.2
X3.2Y-4.3
X3.2Y-4.4
X3.2Y-4.5
X3.2Y-4.6
X3.225Y-3.025
X3.3Y-3.3
X3.3Y-3.4
X3.3Y-3.5
X3.3Y-3.6
X3.3Y-3.7
X3.3Y-3.8
X3.3Y-3.9
X3.3Y-4.
X3.3Y-4.1
X3.3Y-4.2
X3.3Y-4.3
X3.3Y-4.4
X3.3Y-4.5
X3.3Y-4.6
X3.325Y-2.75
X3.4Y-3.3
X3.4Y-3.4
X3.4Y-3.5
X3.4Y-3.6
X3.4Y-3.7
X3.4Y-3.8
X3.4Y-3.9
X3.4Y-4.
X3.4Y-4.1
X3.4Y-4.2
X3.4Y-4.3
X3.4Y-4.4
X3.4Y-4.5
X3.4Y-4.6
X3.425Y-2.75
X3.425Y-4.95
X3.5Y-3.3
X3.5Y-3.4
X3.5Y-3.5
X3.5Y-3.6
X3.5Y-3.7
X3.5Y-3.8
X3.5Y-3.9
X3.5Y-4.
X3.5Y-4.1
X3.5Y-4.2
X3.5Y-4.3
X3.5Y-4.4
X3.5Y-4.5
X3.5Y-4.6
X3.525Y-2.75
X3.525Y-4.95
X3.6Y-3.3
X3.6Y-3.4
X3.6Y-3.5
X3.6Y-3.6
X3.6Y-3.7
X3.6Y-3.8
X3.6Y-3.9
X3.6Y-4.
X3.6Y-4.1
X3.6Y-4.2
X3.6Y-4.3
X3.6Y-4.4
X3.6Y-4.5
X3.6Y-4.6
X3.625Y-2.75
X3.625Y-4.95
X3.7Y-3.3
X3.7Y-3.4
X3.7Y-3.5
X3.7Y-3.6
X3.7Y-3.7
X3.7Y-3.8
X3.7Y-3.9
X3.7Y-4.
X3.7Y-4.1
X3.7Y-4.2
X3.7Y-4.3
X3.7Y-4.4
X3.7Y-4.5
X3.7Y-4.6
X3.725Y-2.75
X3.725Y-4.95
X3.8Y-3.3
X3.8Y-3.4
X3.8Y-3.5
X3.8Y-3.6
X3.8Y-3.7
X3.8Y-3.8
X3.8Y-3.9
X3.8Y-4.
X3.8Y-4.1
X3.8Y-4.2
X3.8Y-4.3
X3.8Y-4.4
X3.8Y-4.5
X3.8Y-4.6
X3.825Y-2.75
X3.825Y-4.95
X3.9Y-3.3
X3.9Y-3.4
X3.9Y-3.5
X3.9Y-3.6
X3.9Y-3.7
X3.9Y-3.8
X3.9Y-3.9
X3.9Y-4.
X3.9Y-4.1
X3.9Y-4.2
X3.9Y-4.3
X3.9Y-4.4
X3.9Y-4.5
X3.9Y-4.6
X3.925Y-2.75
X3.925Y-4.95
X4.Y-3.3
X4.Y-3.4
X4.Y-3.5
X4.Y-3.6
X4.Y-3.7
X4.Y-3.8
X4.Y-3.9
X4.Y-4.
X4.Y-4.1
X4.Y-4.2
X4.Y-4.3
X4.Y-4.4
X4.Y-4.5
X4.Y-4.6
X4.025Y-2.75
X4.025Y-4.95
X4.125Y-2.75
X4.125Y-4.95
X4.225Y-2.75
X4.225Y-4.95
X4.325Y-2.75
X4.325Y-4.95
X4.425Y-2.75
X4.425Y-4.95
X4.525Y-4.95
X5.0787Y-4.9409
X5.1787Y-4.9409
X5.2787Y-4.9409
T3
X6.1428Y-3.6973G85X6.1259Y-3.6973
G05
X6.1428Y-3.9827G85X6.1259Y-3.9827
G05
T0
M30
